<mxfile host="app.diagrams.net" modified="2021-10-19T03:16:05.193Z" agent="5.0 (Windows)" etag="k-WhXE4hKv02w7nAliom" version="15.5.2" type="github">
  <diagram id="msuw9hYGAmnUWYRCktC_" name="Page-1">
    <mxGraphModel dx="3129" dy="2281" grid="1" gridSize="10" guides="1" tooltips="1" connect="1" arrows="1" fold="1" page="1" pageScale="1" pageWidth="827" pageHeight="1169" math="0" shadow="0">
      <root>
        <mxCell id="0" />
        <mxCell id="1" parent="0" />
        <mxCell id="NipPHCl-mKM_xc_7-Nwc-219" value="" style="rounded=0;whiteSpace=wrap;html=1;fontSize=24;align=left;" parent="1" vertex="1">
          <mxGeometry x="-640" y="-835" width="920" height="535" as="geometry" />
        </mxCell>
        <mxCell id="NipPHCl-mKM_xc_7-Nwc-14" style="edgeStyle=orthogonalEdgeStyle;rounded=0;orthogonalLoop=1;jettySize=auto;html=1;" parent="1" source="NipPHCl-mKM_xc_7-Nwc-1" target="NipPHCl-mKM_xc_7-Nwc-11" edge="1">
          <mxGeometry relative="1" as="geometry" />
        </mxCell>
        <mxCell id="NipPHCl-mKM_xc_7-Nwc-1" value="&lt;div&gt;InputMoudel&lt;/div&gt;&lt;div&gt;(&quot;image_input_4det&quot;)&lt;/div&gt;&lt;div&gt;图片cv::Mat&lt;br&gt;&lt;/div&gt;" style="rounded=1;whiteSpace=wrap;html=1;fillColor=#d5e8d4;strokeColor=#82b366;" parent="1" vertex="1">
          <mxGeometry x="-130" y="420" width="160" height="60" as="geometry" />
        </mxCell>
        <mxCell id="NipPHCl-mKM_xc_7-Nwc-32" style="edgeStyle=orthogonalEdgeStyle;rounded=0;orthogonalLoop=1;jettySize=auto;html=1;entryX=0;entryY=0.5;entryDx=0;entryDy=0;fontSize=19;exitX=1;exitY=0.5;exitDx=0;exitDy=0;" parent="1" source="NipPHCl-mKM_xc_7-Nwc-11" target="NipPHCl-mKM_xc_7-Nwc-26" edge="1">
          <mxGeometry relative="1" as="geometry" />
        </mxCell>
        <mxCell id="NipPHCl-mKM_xc_7-Nwc-33" style="edgeStyle=orthogonalEdgeStyle;rounded=0;orthogonalLoop=1;jettySize=auto;html=1;entryX=0;entryY=0.5;entryDx=0;entryDy=0;fontSize=19;" parent="1" source="NipPHCl-mKM_xc_7-Nwc-11" target="NipPHCl-mKM_xc_7-Nwc-25" edge="1">
          <mxGeometry relative="1" as="geometry" />
        </mxCell>
        <mxCell id="NipPHCl-mKM_xc_7-Nwc-34" style="edgeStyle=orthogonalEdgeStyle;rounded=0;orthogonalLoop=1;jettySize=auto;html=1;entryX=0;entryY=0.5;entryDx=0;entryDy=0;fontSize=19;" parent="1" source="NipPHCl-mKM_xc_7-Nwc-11" target="NipPHCl-mKM_xc_7-Nwc-27" edge="1">
          <mxGeometry relative="1" as="geometry" />
        </mxCell>
        <mxCell id="NipPHCl-mKM_xc_7-Nwc-35" style="edgeStyle=orthogonalEdgeStyle;rounded=0;orthogonalLoop=1;jettySize=auto;html=1;entryX=0;entryY=0.5;entryDx=0;entryDy=0;fontSize=19;" parent="1" source="NipPHCl-mKM_xc_7-Nwc-11" target="NipPHCl-mKM_xc_7-Nwc-30" edge="1">
          <mxGeometry relative="1" as="geometry" />
        </mxCell>
        <mxCell id="NipPHCl-mKM_xc_7-Nwc-36" style="edgeStyle=orthogonalEdgeStyle;rounded=0;orthogonalLoop=1;jettySize=auto;html=1;entryX=0;entryY=0.5;entryDx=0;entryDy=0;fontSize=19;" parent="1" source="NipPHCl-mKM_xc_7-Nwc-11" target="NipPHCl-mKM_xc_7-Nwc-29" edge="1">
          <mxGeometry relative="1" as="geometry" />
        </mxCell>
        <mxCell id="NipPHCl-mKM_xc_7-Nwc-37" style="edgeStyle=orthogonalEdgeStyle;rounded=0;orthogonalLoop=1;jettySize=auto;html=1;entryX=0;entryY=0.5;entryDx=0;entryDy=0;fontSize=19;" parent="1" source="NipPHCl-mKM_xc_7-Nwc-11" target="NipPHCl-mKM_xc_7-Nwc-28" edge="1">
          <mxGeometry relative="1" as="geometry" />
        </mxCell>
        <mxCell id="NipPHCl-mKM_xc_7-Nwc-105" style="edgeStyle=orthogonalEdgeStyle;rounded=0;orthogonalLoop=1;jettySize=auto;html=1;fontSize=20;entryX=0.5;entryY=0;entryDx=0;entryDy=0;" parent="1" source="NipPHCl-mKM_xc_7-Nwc-11" target="NipPHCl-mKM_xc_7-Nwc-103" edge="1">
          <mxGeometry relative="1" as="geometry">
            <mxPoint x="140" y="-110" as="targetPoint" />
            <Array as="points">
              <mxPoint x="140" y="-170" />
              <mxPoint x="970" y="-170" />
            </Array>
          </mxGeometry>
        </mxCell>
        <mxCell id="NipPHCl-mKM_xc_7-Nwc-11" value="&lt;div&gt;DCVPredictModule 0 &lt;br&gt;&lt;/div&gt;&lt;div&gt;(&quot;time_stamp_input&quot;)&lt;/div&gt;" style="rounded=1;whiteSpace=wrap;html=1;fillColor=#ffe6cc;strokeColor=#d79b00;" parent="1" vertex="1">
          <mxGeometry x="60" y="430" width="160" height="40" as="geometry" />
        </mxCell>
        <mxCell id="NipPHCl-mKM_xc_7-Nwc-45" value="" style="edgeStyle=orthogonalEdgeStyle;rounded=0;orthogonalLoop=1;jettySize=auto;html=1;fontSize=19;" parent="1" source="NipPHCl-mKM_xc_7-Nwc-25" target="NipPHCl-mKM_xc_7-Nwc-41" edge="1">
          <mxGeometry relative="1" as="geometry" />
        </mxCell>
        <mxCell id="NipPHCl-mKM_xc_7-Nwc-25" value="&lt;div&gt;BBoxFilterModule 2&lt;br&gt;&lt;/div&gt;&lt;div&gt;(&quot;person&quot;)&lt;/div&gt;&lt;div&gt;人体框&lt;br&gt;&lt;/div&gt;" style="rounded=1;whiteSpace=wrap;html=1;fillColor=#d5e8d4;strokeColor=#82b366;" parent="1" vertex="1">
          <mxGeometry x="301" y="270" width="160" height="50" as="geometry" />
        </mxCell>
        <mxCell id="NipPHCl-mKM_xc_7-Nwc-44" style="edgeStyle=orthogonalEdgeStyle;rounded=0;orthogonalLoop=1;jettySize=auto;html=1;fontSize=19;entryX=0;entryY=0.5;entryDx=0;entryDy=0;" parent="1" source="NipPHCl-mKM_xc_7-Nwc-26" target="NipPHCl-mKM_xc_7-Nwc-39" edge="1">
          <mxGeometry relative="1" as="geometry">
            <mxPoint x="489" y="98" as="targetPoint" />
          </mxGeometry>
        </mxCell>
        <mxCell id="NipPHCl-mKM_xc_7-Nwc-26" value="&lt;div&gt;BBoxFilterModule 0&lt;br&gt;&lt;/div&gt;&lt;div&gt;(&quot;face&quot;)&lt;/div&gt;&lt;div&gt;人脸框&lt;br&gt;&lt;/div&gt;" style="rounded=1;whiteSpace=wrap;html=1;fillColor=#d5e8d4;strokeColor=#82b366;" parent="1" vertex="1">
          <mxGeometry x="299" y="60" width="160" height="50" as="geometry" />
        </mxCell>
        <mxCell id="NipPHCl-mKM_xc_7-Nwc-143" value="" style="edgeStyle=orthogonalEdgeStyle;rounded=0;orthogonalLoop=1;jettySize=auto;html=1;fontSize=14;" parent="1" source="NipPHCl-mKM_xc_7-Nwc-27" target="NipPHCl-mKM_xc_7-Nwc-142" edge="1">
          <mxGeometry relative="1" as="geometry" />
        </mxCell>
        <mxCell id="NipPHCl-mKM_xc_7-Nwc-27" value="&lt;div&gt;BBoxFilterModule 0&lt;br&gt;&lt;/div&gt;&lt;div&gt;(&quot;motor_vehicle&quot;)&lt;/div&gt;&lt;div&gt;机动车体框&lt;br&gt;&lt;/div&gt;" style="rounded=1;whiteSpace=wrap;html=1;fillColor=#d5e8d4;strokeColor=#82b366;" parent="1" vertex="1">
          <mxGeometry x="301" y="635" width="160" height="50" as="geometry" />
        </mxCell>
        <mxCell id="NipPHCl-mKM_xc_7-Nwc-177" value="" style="edgeStyle=orthogonalEdgeStyle;rounded=0;orthogonalLoop=1;jettySize=auto;html=1;fontSize=14;" parent="1" source="NipPHCl-mKM_xc_7-Nwc-28" target="NipPHCl-mKM_xc_7-Nwc-176" edge="1">
          <mxGeometry relative="1" as="geometry" />
        </mxCell>
        <mxCell id="NipPHCl-mKM_xc_7-Nwc-28" value="&lt;div&gt;BBoxFilterModule 0&lt;/div&gt;&lt;div&gt;(&quot;non_motor_vehicle&quot;)&lt;/div&gt;&lt;div&gt;非机动车框&lt;br&gt;&lt;/div&gt;" style="rounded=1;whiteSpace=wrap;html=1;fillColor=#d5e8d4;strokeColor=#82b366;" parent="1" vertex="1">
          <mxGeometry x="303" y="1090" width="160" height="50" as="geometry" />
        </mxCell>
        <mxCell id="NipPHCl-mKM_xc_7-Nwc-157" style="edgeStyle=orthogonalEdgeStyle;rounded=0;orthogonalLoop=1;jettySize=auto;html=1;entryX=0;entryY=0.5;entryDx=0;entryDy=0;fontSize=14;" parent="1" source="NipPHCl-mKM_xc_7-Nwc-29" target="NipPHCl-mKM_xc_7-Nwc-151" edge="1">
          <mxGeometry relative="1" as="geometry" />
        </mxCell>
        <mxCell id="NipPHCl-mKM_xc_7-Nwc-29" value="&lt;div&gt;BBoxFilterModule 0&lt;/div&gt;&lt;div&gt;(&quot;front_windows_box&quot;)&lt;/div&gt;&lt;div&gt;车前窗框&lt;br&gt;&lt;/div&gt;" style="rounded=1;whiteSpace=wrap;html=1;fillColor=#d5e8d4;strokeColor=#82b366;" parent="1" vertex="1">
          <mxGeometry x="301" y="760" width="160" height="50" as="geometry" />
        </mxCell>
        <mxCell id="NipPHCl-mKM_xc_7-Nwc-156" style="edgeStyle=orthogonalEdgeStyle;rounded=0;orthogonalLoop=1;jettySize=auto;html=1;entryX=0;entryY=0.5;entryDx=0;entryDy=0;fontSize=14;" parent="1" source="NipPHCl-mKM_xc_7-Nwc-30" target="NipPHCl-mKM_xc_7-Nwc-151" edge="1">
          <mxGeometry relative="1" as="geometry" />
        </mxCell>
        <mxCell id="NipPHCl-mKM_xc_7-Nwc-30" value="&lt;div&gt;BBoxFilterModule 0&lt;/div&gt;&lt;div&gt;(&quot;plate_vehicle&quot;)&lt;/div&gt;&lt;div&gt;车牌框&lt;br&gt;&lt;/div&gt;" style="rounded=1;whiteSpace=wrap;html=1;fillColor=#d5e8d4;strokeColor=#82b366;" parent="1" vertex="1">
          <mxGeometry x="301" y="695" width="160" height="50" as="geometry" />
        </mxCell>
        <mxCell id="NipPHCl-mKM_xc_7-Nwc-106" style="edgeStyle=orthogonalEdgeStyle;rounded=0;orthogonalLoop=1;jettySize=auto;html=1;entryX=0;entryY=0.5;entryDx=0;entryDy=0;fontSize=20;" parent="1" source="NipPHCl-mKM_xc_7-Nwc-39" target="NipPHCl-mKM_xc_7-Nwc-103" edge="1">
          <mxGeometry relative="1" as="geometry" />
        </mxCell>
        <mxCell id="NipPHCl-mKM_xc_7-Nwc-39" value="&lt;div&gt;MultipleObjectTrackingModule 0&lt;br&gt;&lt;/div&gt;&lt;div&gt;(&quot;face&quot;)&lt;/div&gt;&lt;div&gt;人脸&lt;br&gt;&lt;/div&gt;" style="rounded=1;whiteSpace=wrap;html=1;fillColor=#d5e8d4;strokeColor=#82b366;" parent="1" vertex="1">
          <mxGeometry x="590" y="60" width="200" height="50" as="geometry" />
        </mxCell>
        <mxCell id="NipPHCl-mKM_xc_7-Nwc-104" value="" style="edgeStyle=orthogonalEdgeStyle;rounded=0;orthogonalLoop=1;jettySize=auto;html=1;fontSize=20;" parent="1" source="NipPHCl-mKM_xc_7-Nwc-41" target="NipPHCl-mKM_xc_7-Nwc-102" edge="1">
          <mxGeometry relative="1" as="geometry" />
        </mxCell>
        <mxCell id="NipPHCl-mKM_xc_7-Nwc-41" value="&lt;div&gt;MultipleObjectTrackingModule 1&lt;br&gt;&lt;/div&gt;&lt;div&gt;(&quot;person&quot;)&lt;/div&gt;&lt;div&gt;人体&lt;br&gt;&lt;/div&gt;" style="rounded=1;whiteSpace=wrap;html=1;fillColor=#d5e8d4;strokeColor=#82b366;" parent="1" vertex="1">
          <mxGeometry x="590" y="270" width="200" height="50" as="geometry" />
        </mxCell>
        <mxCell id="NipPHCl-mKM_xc_7-Nwc-62" value="&lt;font style=&quot;font-size: 20px&quot; color=&quot;#FFFFFF&quot;&gt;&lt;span style=&quot;background-color: rgb(255 , 30 , 5) ; font-size: 20px&quot;&gt;InitModuleAndWorkFlow&lt;/span&gt;&lt;/font&gt;()" style="rounded=0;whiteSpace=wrap;html=1;fontSize=20;align=center;fillColor=#e51400;strokeColor=#B20000;fontColor=#ffffff;" parent="1" vertex="1">
          <mxGeometry x="-440" y="420" width="243" height="115" as="geometry" />
        </mxCell>
        <mxCell id="NipPHCl-mKM_xc_7-Nwc-64" value="&lt;div style=&quot;color: rgb(212 , 212 , 212) ; background-color: rgb(30 , 30 , 30) ; font-family: &amp;#34;consolas&amp;#34; , &amp;#34;courier new&amp;#34; , monospace ; font-weight: normal ; font-size: 16px ; line-height: 22px&quot;&gt;&lt;div&gt;&lt;div style=&quot;color: rgb(212 , 212 , 212) ; background-color: rgb(30 , 30 , 30) ; font-family: &amp;#34;consolas&amp;#34; , &amp;#34;courier new&amp;#34; , monospace ; font-weight: normal ; font-size: 16px ; line-height: 22px&quot;&gt;&lt;div&gt;&lt;span style=&quot;color: #569cd6&quot;&gt;int&lt;/span&gt;&lt;span style=&quot;color: #d4d4d4&quot;&gt;&amp;nbsp;&lt;/span&gt;&lt;span style=&quot;color: #dcdcaa&quot;&gt;PureEyeSmartProcessFrame&lt;/span&gt;&lt;span style=&quot;color: #d4d4d4&quot;&gt;(&lt;/span&gt;&lt;span style=&quot;color: #4ec9b0&quot;&gt;PureEyeSnapshotHandle&lt;/span&gt;&lt;span style=&quot;color: #d4d4d4&quot;&gt;&amp;nbsp;&lt;/span&gt;&lt;span style=&quot;color: #9cdcfe&quot;&gt;handle&lt;/span&gt;&lt;span style=&quot;color: #d4d4d4&quot;&gt;,&lt;/span&gt;&lt;/div&gt;&lt;div&gt;&lt;span style=&quot;color: #d4d4d4&quot;&gt;&amp;nbsp;&amp;nbsp;&amp;nbsp;&amp;nbsp;&amp;nbsp;&amp;nbsp;&amp;nbsp;&amp;nbsp;&amp;nbsp;&amp;nbsp;&amp;nbsp;&amp;nbsp;&amp;nbsp;&amp;nbsp;&amp;nbsp;&amp;nbsp;&amp;nbsp;&amp;nbsp;&amp;nbsp;&amp;nbsp;&amp;nbsp;&amp;nbsp;&amp;nbsp;&amp;nbsp;&amp;nbsp;&amp;nbsp;&amp;nbsp;&amp;nbsp;&amp;nbsp;&lt;/span&gt;&lt;span style=&quot;color: #569cd6&quot;&gt;const&lt;/span&gt;&lt;span style=&quot;color: #d4d4d4&quot;&gt;&amp;nbsp;&lt;/span&gt;&lt;span style=&quot;color: #4ec9b0&quot;&gt;PureEyeSnapshotFrameInput&lt;/span&gt;&lt;span style=&quot;color: #d4d4d4&quot;&gt;&amp;nbsp;&lt;/span&gt;&lt;span style=&quot;color: #569cd6&quot;&gt;*&lt;/span&gt;&lt;span style=&quot;color: #9cdcfe&quot;&gt;frame&lt;/span&gt;&lt;span style=&quot;color: #d4d4d4&quot;&gt;,&lt;/span&gt;&lt;/div&gt;&lt;div&gt;&lt;span style=&quot;color: #d4d4d4&quot;&gt;&amp;nbsp;&amp;nbsp;&amp;nbsp;&amp;nbsp;&amp;nbsp;&amp;nbsp;&amp;nbsp;&amp;nbsp;&amp;nbsp;&amp;nbsp;&amp;nbsp;&amp;nbsp;&amp;nbsp;&amp;nbsp;&amp;nbsp;&amp;nbsp;&amp;nbsp;&amp;nbsp;&amp;nbsp;&amp;nbsp;&amp;nbsp;&amp;nbsp;&amp;nbsp;&amp;nbsp;&amp;nbsp;&amp;nbsp;&amp;nbsp;&amp;nbsp;&amp;nbsp;&lt;/span&gt;&lt;span style=&quot;color: #4ec9b0&quot;&gt;PureEyeSmartList&lt;/span&gt;&lt;span style=&quot;color: #d4d4d4&quot;&gt;&amp;nbsp;&lt;/span&gt;&lt;span style=&quot;color: #569cd6&quot;&gt;*&lt;/span&gt;&lt;span style=&quot;color: #9cdcfe&quot;&gt;respList&lt;/span&gt;&lt;span style=&quot;color: #d4d4d4&quot;&gt;,&lt;/span&gt;&lt;/div&gt;&lt;div&gt;&lt;span style=&quot;color: #d4d4d4&quot;&gt;&amp;nbsp;&amp;nbsp;&amp;nbsp;&amp;nbsp;&amp;nbsp;&amp;nbsp;&amp;nbsp;&amp;nbsp;&amp;nbsp;&amp;nbsp;&amp;nbsp;&amp;nbsp;&amp;nbsp;&amp;nbsp;&amp;nbsp;&amp;nbsp;&amp;nbsp;&amp;nbsp;&amp;nbsp;&amp;nbsp;&amp;nbsp;&amp;nbsp;&amp;nbsp;&amp;nbsp;&amp;nbsp;&amp;nbsp;&amp;nbsp;&amp;nbsp;&amp;nbsp;&lt;/span&gt;&lt;span style=&quot;color: #4ec9b0&quot;&gt;PureEyeTrackSnapList&lt;/span&gt;&lt;span style=&quot;color: #d4d4d4&quot;&gt;&amp;nbsp;&lt;/span&gt;&lt;span style=&quot;color: #569cd6&quot;&gt;*&lt;/span&gt;&lt;span style=&quot;color: #9cdcfe&quot;&gt;snaps&lt;/span&gt;&lt;span style=&quot;color: #d4d4d4&quot;&gt;)&lt;/span&gt;&lt;/div&gt;&lt;/div&gt;&lt;/div&gt;&lt;/div&gt;" style="rounded=1;whiteSpace=wrap;html=1;fontSize=19;align=center;" parent="1" vertex="1">
          <mxGeometry x="17" y="1355" width="620" height="120" as="geometry" />
        </mxCell>
        <mxCell id="NipPHCl-mKM_xc_7-Nwc-65" value="&lt;div style=&quot;color: rgb(212, 212, 212); background-color: rgb(30, 30, 30); font-family: &amp;quot;consolas&amp;quot;, &amp;quot;courier new&amp;quot;, monospace; font-weight: normal; font-size: 16px; line-height: 22px;&quot;&gt;&lt;div&gt;&lt;span style=&quot;color: #569cd6&quot;&gt;int&lt;/span&gt;&lt;span style=&quot;color: #d4d4d4&quot;&gt;&amp;nbsp;&lt;/span&gt;&lt;span style=&quot;color: #4ec9b0&quot;&gt;AlgoContent&lt;/span&gt;&lt;span style=&quot;color: #d4d4d4&quot;&gt;::&lt;/span&gt;&lt;span style=&quot;color: #dcdcaa&quot;&gt;ProcessFrame&lt;/span&gt;&lt;span style=&quot;color: #d4d4d4&quot;&gt;(&lt;/span&gt;&lt;span style=&quot;color: #569cd6&quot;&gt;const&lt;/span&gt;&lt;span style=&quot;color: #d4d4d4&quot;&gt;&amp;nbsp;&lt;/span&gt;&lt;span style=&quot;color: #4ec9b0&quot;&gt;PureEyeSnapshotFrameInput&lt;/span&gt;&lt;span style=&quot;color: #d4d4d4&quot;&gt;&amp;nbsp;&lt;/span&gt;&lt;span style=&quot;color: #569cd6&quot;&gt;*&lt;/span&gt;&lt;span style=&quot;color: #9cdcfe&quot;&gt;frame&lt;/span&gt;&lt;span style=&quot;color: #d4d4d4&quot;&gt;,&lt;/span&gt;&lt;/div&gt;&lt;div&gt;&lt;span style=&quot;color: #d4d4d4&quot;&gt;&amp;nbsp;&amp;nbsp;&amp;nbsp;&amp;nbsp;&amp;nbsp;&amp;nbsp;&amp;nbsp;&amp;nbsp;&amp;nbsp;&amp;nbsp;&amp;nbsp;&amp;nbsp;&amp;nbsp;&amp;nbsp;&amp;nbsp;&amp;nbsp;&amp;nbsp;&amp;nbsp;&amp;nbsp;&amp;nbsp;&amp;nbsp;&amp;nbsp;&amp;nbsp;&amp;nbsp;&amp;nbsp;&amp;nbsp;&amp;nbsp;&amp;nbsp;&amp;nbsp;&amp;nbsp;&lt;/span&gt;&lt;span style=&quot;color: #4ec9b0&quot;&gt;PureEyeSmartList&lt;/span&gt;&lt;span style=&quot;color: #d4d4d4&quot;&gt;&amp;nbsp;&lt;/span&gt;&lt;span style=&quot;color: #569cd6&quot;&gt;*&lt;/span&gt;&lt;span style=&quot;color: #9cdcfe&quot;&gt;respList&lt;/span&gt;&lt;span style=&quot;color: #d4d4d4&quot;&gt;,&lt;/span&gt;&lt;/div&gt;&lt;div&gt;&lt;span style=&quot;color: #d4d4d4&quot;&gt;&amp;nbsp;&amp;nbsp;&amp;nbsp;&amp;nbsp;&amp;nbsp;&amp;nbsp;&amp;nbsp;&amp;nbsp;&amp;nbsp;&amp;nbsp;&amp;nbsp;&amp;nbsp;&amp;nbsp;&amp;nbsp;&amp;nbsp;&amp;nbsp;&amp;nbsp;&amp;nbsp;&amp;nbsp;&amp;nbsp;&amp;nbsp;&amp;nbsp;&amp;nbsp;&amp;nbsp;&amp;nbsp;&amp;nbsp;&amp;nbsp;&amp;nbsp;&amp;nbsp;&amp;nbsp;&lt;/span&gt;&lt;span style=&quot;color: #4ec9b0&quot;&gt;PureEyeTrackSnapList&lt;/span&gt;&lt;span style=&quot;color: #d4d4d4&quot;&gt;&amp;nbsp;&lt;/span&gt;&lt;span style=&quot;color: #569cd6&quot;&gt;*&lt;/span&gt;&lt;span style=&quot;color: #9cdcfe&quot;&gt;snaps&lt;/span&gt;&lt;span style=&quot;color: #d4d4d4&quot;&gt;)&lt;/span&gt;&lt;/div&gt;&lt;div&gt;&lt;span style=&quot;color: #d4d4d4&quot;&gt;&lt;/span&gt;&lt;/div&gt;&lt;/div&gt;" style="text;whiteSpace=wrap;html=1;fontSize=19;" parent="1" vertex="1">
          <mxGeometry x="17" y="1475" width="550" height="80" as="geometry" />
        </mxCell>
        <mxCell id="NipPHCl-mKM_xc_7-Nwc-66" value="&lt;div style=&quot;color: rgb(212, 212, 212); background-color: rgb(30, 30, 30); font-family: &amp;quot;consolas&amp;quot;, &amp;quot;courier new&amp;quot;, monospace; font-weight: normal; font-size: 16px; line-height: 22px;&quot;&gt;&lt;div&gt;&lt;span style=&quot;color: #d4d4d4&quot;&gt;&amp;nbsp;&amp;nbsp;&amp;nbsp;&amp;nbsp;&lt;/span&gt;&lt;span style=&quot;color: #9cdcfe&quot;&gt;workflow_&lt;/span&gt;&lt;span style=&quot;color: #d4d4d4&quot;&gt;-&amp;gt;&lt;/span&gt;&lt;span style=&quot;color: #dcdcaa&quot;&gt;Feed&lt;/span&gt;&lt;span style=&quot;color: #d4d4d4&quot;&gt;(&lt;/span&gt;&lt;span style=&quot;color: #9cdcfe&quot;&gt;run_task_&lt;/span&gt;&lt;span style=&quot;color: #d4d4d4&quot;&gt;,&amp;nbsp;&lt;/span&gt;&lt;span style=&quot;color: #9cdcfe&quot;&gt;image_input_4det_&lt;/span&gt;&lt;span style=&quot;color: #d4d4d4&quot;&gt;,&amp;nbsp;&lt;/span&gt;&lt;span style=&quot;color: #b5cea8&quot;&gt;0&lt;/span&gt;&lt;span style=&quot;color: #d4d4d4&quot;&gt;,&amp;nbsp;&lt;/span&gt;&lt;span style=&quot;color: #4ec9b0&quot;&gt;pureeye&lt;/span&gt;&lt;span style=&quot;color: #d4d4d4&quot;&gt;::&lt;/span&gt;&lt;span style=&quot;color: #dcdcaa&quot;&gt;spMessage&lt;/span&gt;&lt;span style=&quot;color: #d4d4d4&quot;&gt;(&lt;/span&gt;&lt;span style=&quot;color: #9cdcfe&quot;&gt;cvmat_message_4det_&lt;/span&gt;&lt;span style=&quot;color: #d4d4d4&quot;&gt;));&lt;/span&gt;&lt;/div&gt;&lt;div&gt;&lt;span style=&quot;color: #d4d4d4&quot;&gt;&amp;nbsp;&amp;nbsp;&amp;nbsp;&amp;nbsp;&lt;/span&gt;&lt;span style=&quot;color: #9cdcfe&quot;&gt;workflow_&lt;/span&gt;&lt;span style=&quot;color: #d4d4d4&quot;&gt;-&amp;gt;&lt;/span&gt;&lt;span style=&quot;color: #dcdcaa&quot;&gt;Feed&lt;/span&gt;&lt;span style=&quot;color: #d4d4d4&quot;&gt;(&lt;/span&gt;&lt;span style=&quot;color: #9cdcfe&quot;&gt;run_task_&lt;/span&gt;&lt;span style=&quot;color: #d4d4d4&quot;&gt;,&amp;nbsp;&lt;/span&gt;&lt;span style=&quot;color: #9cdcfe&quot;&gt;image_input_&lt;/span&gt;&lt;span style=&quot;color: #d4d4d4&quot;&gt;,&amp;nbsp;&lt;/span&gt;&lt;span style=&quot;color: #b5cea8&quot;&gt;0&lt;/span&gt;&lt;span style=&quot;color: #d4d4d4&quot;&gt;,&amp;nbsp;&lt;/span&gt;&lt;span style=&quot;color: #4ec9b0&quot;&gt;pureeye&lt;/span&gt;&lt;span style=&quot;color: #d4d4d4&quot;&gt;::&lt;/span&gt;&lt;span style=&quot;color: #dcdcaa&quot;&gt;spMessage&lt;/span&gt;&lt;span style=&quot;color: #d4d4d4&quot;&gt;(&lt;/span&gt;&lt;span style=&quot;color: #9cdcfe&quot;&gt;cvmat_message_&lt;/span&gt;&lt;span style=&quot;color: #d4d4d4&quot;&gt;));&lt;/span&gt;&lt;/div&gt;&lt;div&gt;&lt;span style=&quot;color: #d4d4d4&quot;&gt;&amp;nbsp;&amp;nbsp;&amp;nbsp;&amp;nbsp;&lt;/span&gt;&lt;span style=&quot;color: #9cdcfe&quot;&gt;workflow_&lt;/span&gt;&lt;span style=&quot;color: #d4d4d4&quot;&gt;-&amp;gt;&lt;/span&gt;&lt;span style=&quot;color: #dcdcaa&quot;&gt;Feed&lt;/span&gt;&lt;span style=&quot;color: #d4d4d4&quot;&gt;(&lt;/span&gt;&lt;span style=&quot;color: #9cdcfe&quot;&gt;run_task_&lt;/span&gt;&lt;span style=&quot;color: #d4d4d4&quot;&gt;,&amp;nbsp;&lt;/span&gt;&lt;span style=&quot;color: #9cdcfe&quot;&gt;time_stamp_input_&lt;/span&gt;&lt;span style=&quot;color: #d4d4d4&quot;&gt;,&amp;nbsp;&lt;/span&gt;&lt;span style=&quot;color: #b5cea8&quot;&gt;0&lt;/span&gt;&lt;span style=&quot;color: #d4d4d4&quot;&gt;,&amp;nbsp;&lt;/span&gt;&lt;span style=&quot;color: #4ec9b0&quot;&gt;pureeye&lt;/span&gt;&lt;span style=&quot;color: #d4d4d4&quot;&gt;::&lt;/span&gt;&lt;span style=&quot;color: #dcdcaa&quot;&gt;spMessage&lt;/span&gt;&lt;span style=&quot;color: #d4d4d4&quot;&gt;(&lt;/span&gt;&lt;span style=&quot;color: #9cdcfe&quot;&gt;time_stamp_global_message&lt;/span&gt;&lt;span style=&quot;color: #d4d4d4&quot;&gt;));&lt;/span&gt;&lt;/div&gt;&lt;div&gt;&lt;span style=&quot;color: #d4d4d4&quot;&gt;&amp;nbsp;&amp;nbsp;&amp;nbsp;&amp;nbsp;&lt;/span&gt;&lt;span style=&quot;color: #9cdcfe&quot;&gt;workflow_&lt;/span&gt;&lt;span style=&quot;color: #d4d4d4&quot;&gt;-&amp;gt;&lt;/span&gt;&lt;span style=&quot;color: #dcdcaa&quot;&gt;Feed&lt;/span&gt;&lt;span style=&quot;color: #d4d4d4&quot;&gt;(&lt;/span&gt;&lt;span style=&quot;color: #9cdcfe&quot;&gt;run_task_&lt;/span&gt;&lt;span style=&quot;color: #d4d4d4&quot;&gt;,&amp;nbsp;&lt;/span&gt;&lt;span style=&quot;color: #9cdcfe&quot;&gt;img_info_input_&lt;/span&gt;&lt;span style=&quot;color: #d4d4d4&quot;&gt;,&amp;nbsp;&lt;/span&gt;&lt;span style=&quot;color: #b5cea8&quot;&gt;0&lt;/span&gt;&lt;span style=&quot;color: #d4d4d4&quot;&gt;,&amp;nbsp;&lt;/span&gt;&lt;span style=&quot;color: #4ec9b0&quot;&gt;pureeye&lt;/span&gt;&lt;span style=&quot;color: #d4d4d4&quot;&gt;::&lt;/span&gt;&lt;span style=&quot;color: #dcdcaa&quot;&gt;spMessage&lt;/span&gt;&lt;span style=&quot;color: #d4d4d4&quot;&gt;(&lt;/span&gt;&lt;span style=&quot;color: #9cdcfe&quot;&gt;img_info_message&lt;/span&gt;&lt;span style=&quot;color: #d4d4d4&quot;&gt;));&lt;/span&gt;&lt;/div&gt;&lt;div&gt;&lt;span style=&quot;color: #d4d4d4&quot;&gt;&lt;/span&gt;&lt;/div&gt;&lt;/div&gt;" style="text;whiteSpace=wrap;html=1;fontSize=19;" parent="1" vertex="1">
          <mxGeometry x="17" y="1555" width="550" height="100" as="geometry" />
        </mxCell>
        <mxCell id="NipPHCl-mKM_xc_7-Nwc-67" value="&lt;div style=&quot;color: rgb(212, 212, 212); background-color: rgb(30, 30, 30); font-family: &amp;quot;consolas&amp;quot;, &amp;quot;courier new&amp;quot;, monospace; font-weight: normal; font-size: 16px; line-height: 22px;&quot;&gt;&lt;div&gt;&lt;span style=&quot;color: #d4d4d4&quot;&gt;&amp;nbsp;&amp;nbsp;&amp;nbsp;&amp;nbsp;&lt;/span&gt;&lt;span style=&quot;color: #dcdcaa&quot;&gt;BuildSnapOutputFacePerson&lt;/span&gt;&lt;span style=&quot;color: #d4d4d4&quot;&gt;(&lt;/span&gt;&lt;span style=&quot;color: #9cdcfe&quot;&gt;snaps&lt;/span&gt;&lt;span style=&quot;color: #d4d4d4&quot;&gt;,&amp;nbsp;&lt;/span&gt;&lt;span style=&quot;color: #9cdcfe&quot;&gt;cvmat_message&lt;/span&gt;&lt;span style=&quot;color: #d4d4d4&quot;&gt;,&amp;nbsp;snap_pair_message);&lt;/span&gt;&lt;/div&gt;&lt;div&gt;&lt;span style=&quot;color: #d4d4d4&quot;&gt;&amp;nbsp;&amp;nbsp;&amp;nbsp;&amp;nbsp;&lt;/span&gt;&lt;span style=&quot;color: #dcdcaa&quot;&gt;BuildSnapOutputMotor&lt;/span&gt;&lt;span style=&quot;color: #d4d4d4&quot;&gt;(&lt;/span&gt;&lt;span style=&quot;color: #9cdcfe&quot;&gt;snaps&lt;/span&gt;&lt;span style=&quot;color: #d4d4d4&quot;&gt;,&amp;nbsp;&lt;/span&gt;&lt;span style=&quot;color: #9cdcfe&quot;&gt;cvmat_message&lt;/span&gt;&lt;span style=&quot;color: #d4d4d4&quot;&gt;,&amp;nbsp;&lt;/span&gt;&lt;span style=&quot;color: #9cdcfe&quot;&gt;motor_snap_message&lt;/span&gt;&lt;span style=&quot;color: #d4d4d4&quot;&gt;);&lt;/span&gt;&lt;/div&gt;&lt;div&gt;&lt;span style=&quot;color: #d4d4d4&quot;&gt;&amp;nbsp;&amp;nbsp;&amp;nbsp;&amp;nbsp;&lt;/span&gt;&lt;span style=&quot;color: #dcdcaa&quot;&gt;BuildSnapOutputNonMotor&lt;/span&gt;&lt;span style=&quot;color: #d4d4d4&quot;&gt;(&lt;/span&gt;&lt;span style=&quot;color: #9cdcfe&quot;&gt;snaps&lt;/span&gt;&lt;span style=&quot;color: #d4d4d4&quot;&gt;,&amp;nbsp;&lt;/span&gt;&lt;span style=&quot;color: #9cdcfe&quot;&gt;cvmat_message&lt;/span&gt;&lt;span style=&quot;color: #d4d4d4&quot;&gt;,&amp;nbsp;&lt;/span&gt;&lt;span style=&quot;color: #9cdcfe&quot;&gt;non_motor_snap_message&lt;/span&gt;&lt;span style=&quot;color: #d4d4d4&quot;&gt;);&lt;/span&gt;&lt;/div&gt;&lt;div&gt;&lt;span style=&quot;color: #d4d4d4&quot;&gt;&lt;/span&gt;&lt;/div&gt;&lt;/div&gt;" style="text;whiteSpace=wrap;html=1;fontSize=19;" parent="1" vertex="1">
          <mxGeometry x="16" y="2296" width="550" height="80" as="geometry" />
        </mxCell>
        <mxCell id="NipPHCl-mKM_xc_7-Nwc-68" value="&lt;div style=&quot;color: rgb(212, 212, 212); background-color: rgb(30, 30, 30); font-family: &amp;quot;consolas&amp;quot;, &amp;quot;courier new&amp;quot;, monospace; font-weight: normal; font-size: 16px; line-height: 22px;&quot;&gt;&lt;div&gt;&lt;span style=&quot;color: #4ec9b0&quot;&gt;AlgoContent&lt;/span&gt;&lt;/div&gt;&lt;/div&gt;" style="text;whiteSpace=wrap;html=1;fontSize=19;" parent="1" vertex="1">
          <mxGeometry x="-120" y="1536" width="120" height="40" as="geometry" />
        </mxCell>
        <mxCell id="NipPHCl-mKM_xc_7-Nwc-69" value="&lt;div style=&quot;font-size: 33px;&quot;&gt;sdk调用&lt;/div&gt;" style="rounded=0;whiteSpace=wrap;html=1;fontSize=33;align=center;fillColor=#e51400;strokeColor=#B20000;fontColor=#ffffff;" parent="1" vertex="1">
          <mxGeometry x="-324.5" y="1420" width="163" height="245" as="geometry" />
        </mxCell>
        <mxCell id="NipPHCl-mKM_xc_7-Nwc-70" value="根据不同的配置初始化不同的workflow&lt;br&gt;PUREEYE_SNAPSHOT_MODE_FACE&lt;br&gt;init_face_flow()&lt;br&gt;&lt;br&gt;PUREEYE_SNAPSHOT_MODE_PERSON&lt;br&gt;init_person_flow()&lt;br&gt;&lt;br&gt;PUREEYE_SNAPSHOT_MODE_ONE_FRAME&lt;br&gt;InitOneFrameRectMergeWorkFlow()&lt;br&gt;&lt;br&gt;PUREEYE_SNAPSHOT_MODE_FACE | PUREEYE_SNAPSHOT_MODE_PERSON&lt;br&gt;InitFacePersonWorkFlow()&lt;br&gt;&lt;br&gt;全部(人脸|人体|车辆|非机动车)&lt;br&gt;InitModuleAndWorkFlow()" style="rounded=0;whiteSpace=wrap;html=1;fontSize=19;align=center;fillColor=#cdeb8b;strokeColor=#36393d;" parent="1" vertex="1">
          <mxGeometry x="-513" y="-65" width="520" height="400" as="geometry" />
        </mxCell>
        <mxCell id="NipPHCl-mKM_xc_7-Nwc-76" value="&lt;div&gt;参数 2&lt;br&gt;&lt;/div&gt;" style="text;html=1;strokeColor=none;fillColor=none;align=center;verticalAlign=middle;whiteSpace=wrap;rounded=0;fontSize=20;" parent="1" vertex="1">
          <mxGeometry x="481" y="50" width="70" height="30" as="geometry" />
        </mxCell>
        <mxCell id="NipPHCl-mKM_xc_7-Nwc-204" value="" style="edgeStyle=orthogonalEdgeStyle;rounded=0;orthogonalLoop=1;jettySize=auto;html=1;fontSize=14;strokeWidth=4;" parent="1" edge="1">
          <mxGeometry relative="1" as="geometry">
            <mxPoint x="379" y="-17" as="sourcePoint" />
            <mxPoint x="379" y="-134" as="targetPoint" />
          </mxGeometry>
        </mxCell>
        <mxCell id="NipPHCl-mKM_xc_7-Nwc-78" value="&lt;div&gt;过滤 框的得分&lt;/div&gt;" style="text;html=1;strokeColor=none;fillColor=none;align=left;verticalAlign=middle;whiteSpace=wrap;rounded=0;fontSize=19;" parent="1" vertex="1">
          <mxGeometry x="314" y="-20" width="130" height="70" as="geometry" />
        </mxCell>
        <mxCell id="NipPHCl-mKM_xc_7-Nwc-98" style="edgeStyle=orthogonalEdgeStyle;rounded=0;orthogonalLoop=1;jettySize=auto;html=1;exitX=1;exitY=0.75;exitDx=0;exitDy=0;entryX=0.465;entryY=0.02;entryDx=0;entryDy=0;entryPerimeter=0;fontSize=20;" parent="1" source="NipPHCl-mKM_xc_7-Nwc-79" target="NipPHCl-mKM_xc_7-Nwc-41" edge="1">
          <mxGeometry relative="1" as="geometry" />
        </mxCell>
        <mxCell id="NipPHCl-mKM_xc_7-Nwc-99" style="edgeStyle=orthogonalEdgeStyle;rounded=0;orthogonalLoop=1;jettySize=auto;html=1;exitX=1;exitY=0.25;exitDx=0;exitDy=0;entryX=0.35;entryY=1;entryDx=0;entryDy=0;entryPerimeter=0;fontSize=20;" parent="1" source="NipPHCl-mKM_xc_7-Nwc-79" target="NipPHCl-mKM_xc_7-Nwc-39" edge="1">
          <mxGeometry relative="1" as="geometry" />
        </mxCell>
        <mxCell id="NipPHCl-mKM_xc_7-Nwc-79" value="&lt;div&gt;InputMoudel&lt;/div&gt;&lt;div&gt;(&quot;img_info_input&quot;)&lt;/div&gt;&lt;div&gt;图片大小信息&lt;/div&gt;" style="rounded=1;whiteSpace=wrap;html=1;fillColor=#dae8fc;strokeColor=#6c8ebf;" parent="1" vertex="1">
          <mxGeometry x="299" y="140" width="160" height="40" as="geometry" />
        </mxCell>
        <mxCell id="NipPHCl-mKM_xc_7-Nwc-97" style="edgeStyle=orthogonalEdgeStyle;rounded=0;orthogonalLoop=1;jettySize=auto;html=1;exitX=1;exitY=0.75;exitDx=0;exitDy=0;entryX=0.25;entryY=0;entryDx=0;entryDy=0;fontSize=20;" parent="1" source="NipPHCl-mKM_xc_7-Nwc-80" target="NipPHCl-mKM_xc_7-Nwc-41" edge="1">
          <mxGeometry relative="1" as="geometry" />
        </mxCell>
        <mxCell id="NipPHCl-mKM_xc_7-Nwc-100" style="edgeStyle=orthogonalEdgeStyle;rounded=0;orthogonalLoop=1;jettySize=auto;html=1;exitX=1;exitY=0.25;exitDx=0;exitDy=0;entryX=0.45;entryY=1;entryDx=0;entryDy=0;entryPerimeter=0;fontSize=20;" parent="1" source="NipPHCl-mKM_xc_7-Nwc-80" target="NipPHCl-mKM_xc_7-Nwc-39" edge="1">
          <mxGeometry relative="1" as="geometry" />
        </mxCell>
        <mxCell id="NipPHCl-mKM_xc_7-Nwc-80" value="&lt;div&gt;InputMoudel&lt;/div&gt;&lt;div&gt;(&quot;time_stamp_input&quot;)&lt;/div&gt;&lt;div&gt;图片的时间戳&lt;br&gt;&lt;/div&gt;" style="rounded=1;whiteSpace=wrap;html=1;fillColor=#dae8fc;strokeColor=#6c8ebf;" parent="1" vertex="1">
          <mxGeometry x="300" y="200" width="160" height="40" as="geometry" />
        </mxCell>
        <mxCell id="NipPHCl-mKM_xc_7-Nwc-87" value="&lt;div&gt;参数 2&lt;br&gt;&lt;/div&gt;" style="text;html=1;strokeColor=none;fillColor=none;align=center;verticalAlign=middle;whiteSpace=wrap;rounded=0;fontSize=20;" parent="1" vertex="1">
          <mxGeometry x="480" y="260" width="70" height="30" as="geometry" />
        </mxCell>
        <mxCell id="NipPHCl-mKM_xc_7-Nwc-92" value="&lt;div&gt;参数 1&lt;br&gt;&lt;/div&gt;" style="text;html=1;strokeColor=none;fillColor=none;align=center;verticalAlign=middle;whiteSpace=wrap;rounded=0;fontSize=20;" parent="1" vertex="1">
          <mxGeometry x="520" y="170" width="70" height="50" as="geometry" />
        </mxCell>
        <mxCell id="NipPHCl-mKM_xc_7-Nwc-95" value="&lt;div&gt;参数 0&lt;/div&gt;" style="text;whiteSpace=wrap;html=1;fontSize=20;" parent="1" vertex="1">
          <mxGeometry x="525" y="120" width="80" height="30" as="geometry" />
        </mxCell>
        <mxCell id="NipPHCl-mKM_xc_7-Nwc-200" style="edgeStyle=orthogonalEdgeStyle;rounded=0;orthogonalLoop=1;jettySize=auto;html=1;fontSize=14;strokeWidth=4;exitX=0.5;exitY=0;exitDx=0;exitDy=0;" parent="1" source="NipPHCl-mKM_xc_7-Nwc-39" edge="1">
          <mxGeometry relative="1" as="geometry">
            <mxPoint x="690" y="-330" as="targetPoint" />
          </mxGeometry>
        </mxCell>
        <mxCell id="NipPHCl-mKM_xc_7-Nwc-122" style="edgeStyle=orthogonalEdgeStyle;rounded=0;orthogonalLoop=1;jettySize=auto;html=1;entryX=0;entryY=0.5;entryDx=0;entryDy=0;fontSize=20;" parent="1" source="NipPHCl-mKM_xc_7-Nwc-102" target="NipPHCl-mKM_xc_7-Nwc-119" edge="1">
          <mxGeometry relative="1" as="geometry" />
        </mxCell>
        <mxCell id="NipPHCl-mKM_xc_7-Nwc-131" style="edgeStyle=orthogonalEdgeStyle;rounded=0;orthogonalLoop=1;jettySize=auto;html=1;entryX=0;entryY=0.5;entryDx=0;entryDy=0;fontSize=14;" parent="1" source="NipPHCl-mKM_xc_7-Nwc-102" target="NipPHCl-mKM_xc_7-Nwc-124" edge="1">
          <mxGeometry relative="1" as="geometry">
            <Array as="points">
              <mxPoint x="1110" y="295" />
              <mxPoint x="1110" y="125" />
            </Array>
          </mxGeometry>
        </mxCell>
        <mxCell id="NipPHCl-mKM_xc_7-Nwc-236" style="edgeStyle=orthogonalEdgeStyle;rounded=0;orthogonalLoop=1;jettySize=auto;html=1;entryX=0.006;entryY=0.149;entryDx=0;entryDy=0;entryPerimeter=0;fontSize=4;strokeWidth=1;" parent="1" source="NipPHCl-mKM_xc_7-Nwc-102" target="NipPHCl-mKM_xc_7-Nwc-117" edge="1">
          <mxGeometry relative="1" as="geometry">
            <Array as="points">
              <mxPoint x="1080" y="295" />
              <mxPoint x="1080" y="-32" />
            </Array>
          </mxGeometry>
        </mxCell>
        <mxCell id="NipPHCl-mKM_xc_7-Nwc-102" value="&lt;div&gt;BBoxFilterModule 3&lt;br&gt;&lt;/div&gt;&lt;div&gt;(&quot;person&quot;)&lt;/div&gt;&lt;div&gt;&lt;br&gt;&lt;/div&gt;" style="rounded=1;whiteSpace=wrap;html=1;fillColor=#d5e8d4;strokeColor=#82b366;" parent="1" vertex="1">
          <mxGeometry x="900" y="270" width="160" height="50" as="geometry" />
        </mxCell>
        <mxCell id="NipPHCl-mKM_xc_7-Nwc-121" style="edgeStyle=orthogonalEdgeStyle;rounded=0;orthogonalLoop=1;jettySize=auto;html=1;entryX=0;entryY=0.5;entryDx=0;entryDy=0;fontSize=20;" parent="1" source="NipPHCl-mKM_xc_7-Nwc-103" target="NipPHCl-mKM_xc_7-Nwc-117" edge="1">
          <mxGeometry relative="1" as="geometry" />
        </mxCell>
        <mxCell id="NipPHCl-mKM_xc_7-Nwc-130" style="edgeStyle=orthogonalEdgeStyle;rounded=0;orthogonalLoop=1;jettySize=auto;html=1;entryX=0;entryY=0.25;entryDx=0;entryDy=0;fontSize=14;" parent="1" source="NipPHCl-mKM_xc_7-Nwc-103" target="NipPHCl-mKM_xc_7-Nwc-124" edge="1">
          <mxGeometry relative="1" as="geometry">
            <Array as="points">
              <mxPoint x="1110" y="-15" />
              <mxPoint x="1110" y="113" />
            </Array>
          </mxGeometry>
        </mxCell>
        <mxCell id="NipPHCl-mKM_xc_7-Nwc-103" value="&lt;div&gt;BBoxFilterModule 1&lt;br&gt;&lt;/div&gt;&lt;div&gt;(&quot;face&quot;)&lt;/div&gt;" style="rounded=1;whiteSpace=wrap;html=1;fillColor=#d5e8d4;strokeColor=#82b366;" parent="1" vertex="1">
          <mxGeometry x="890" y="-40" width="160" height="50" as="geometry" />
        </mxCell>
        <mxCell id="NipPHCl-mKM_xc_7-Nwc-107" value="lmk" style="text;html=1;strokeColor=none;fillColor=none;align=center;verticalAlign=middle;whiteSpace=wrap;rounded=0;fontSize=20;" parent="1" vertex="1">
          <mxGeometry x="978" y="-137" width="40" height="20" as="geometry" />
        </mxCell>
        <mxCell id="NipPHCl-mKM_xc_7-Nwc-108" value="pose" style="text;html=1;strokeColor=none;fillColor=none;align=center;verticalAlign=middle;whiteSpace=wrap;rounded=0;fontSize=20;" parent="1" vertex="1">
          <mxGeometry x="980" y="-110" width="40" height="20" as="geometry" />
        </mxCell>
        <mxCell id="NipPHCl-mKM_xc_7-Nwc-109" value="&lt;div&gt;rect&lt;/div&gt;" style="text;html=1;strokeColor=none;fillColor=none;align=center;verticalAlign=middle;whiteSpace=wrap;rounded=0;fontSize=20;" parent="1" vertex="1">
          <mxGeometry x="980" y="-85" width="40" height="20" as="geometry" />
        </mxCell>
        <mxCell id="NipPHCl-mKM_xc_7-Nwc-113" value="track_id 人脸框列表" style="text;html=1;strokeColor=none;fillColor=none;align=center;verticalAlign=middle;whiteSpace=wrap;rounded=0;fontSize=20;" parent="1" vertex="1">
          <mxGeometry x="780" y="-50" width="100" height="20" as="geometry" />
        </mxCell>
        <mxCell id="NipPHCl-mKM_xc_7-Nwc-114" value="&lt;div&gt;根据iou计算合并人脸框和track_id,lmk等信息&lt;/div&gt;&lt;div&gt;&lt;div style=&quot;color: rgb(212 , 212 , 212) ; background-color: rgb(30 , 30 , 30) ; font-family: &amp;#34;consolas&amp;#34; , &amp;#34;courier new&amp;#34; , monospace ; font-weight: normal ; font-size: 16px ; line-height: 22px&quot;&gt;&lt;div&gt;&lt;span style=&quot;color: #9cdcfe&quot;&gt;生成face_info_message&lt;/span&gt;&lt;/div&gt;&lt;/div&gt;&lt;/div&gt;" style="text;html=1;strokeColor=none;fillColor=none;align=center;verticalAlign=middle;whiteSpace=wrap;rounded=0;fontSize=20;" parent="1" vertex="1">
          <mxGeometry x="869" y="55" width="222" height="20" as="geometry" />
        </mxCell>
        <mxCell id="NipPHCl-mKM_xc_7-Nwc-115" value="&lt;div style=&quot;color: rgb(212 , 212 , 212) ; background-color: rgb(30 , 30 , 30) ; font-family: &amp;#34;consolas&amp;#34; , &amp;#34;courier new&amp;#34; , monospace ; font-weight: normal ; font-size: 16px ; line-height: 22px&quot;&gt;&lt;div&gt;&lt;span style=&quot;color: #4ec9b0&quot;&gt;生成PersonInfoMessage&lt;/span&gt;&lt;/div&gt;&lt;/div&gt;" style="text;whiteSpace=wrap;html=1;fontSize=20;" parent="1" vertex="1">
          <mxGeometry x="880.5" y="320" width="199" height="40" as="geometry" />
        </mxCell>
        <mxCell id="NipPHCl-mKM_xc_7-Nwc-127" style="edgeStyle=orthogonalEdgeStyle;rounded=0;orthogonalLoop=1;jettySize=auto;html=1;entryX=0.544;entryY=0.02;entryDx=0;entryDy=0;entryPerimeter=0;fontSize=20;" parent="1" source="NipPHCl-mKM_xc_7-Nwc-117" target="NipPHCl-mKM_xc_7-Nwc-124" edge="1">
          <mxGeometry relative="1" as="geometry" />
        </mxCell>
        <mxCell id="NipPHCl-mKM_xc_7-Nwc-117" value="&lt;div&gt;FaceSnapStrategyModule1&lt;br&gt;&lt;/div&gt;&lt;div&gt;(&quot;face&quot;)&lt;/div&gt;" style="rounded=1;whiteSpace=wrap;html=1;fillColor=#d5e8d4;strokeColor=#82b366;" parent="1" vertex="1">
          <mxGeometry x="1170" y="-40" width="160" height="50" as="geometry" />
        </mxCell>
        <mxCell id="NipPHCl-mKM_xc_7-Nwc-128" style="edgeStyle=orthogonalEdgeStyle;rounded=0;orthogonalLoop=1;jettySize=auto;html=1;entryX=0.5;entryY=1;entryDx=0;entryDy=0;fontSize=20;" parent="1" source="NipPHCl-mKM_xc_7-Nwc-119" target="NipPHCl-mKM_xc_7-Nwc-124" edge="1">
          <mxGeometry relative="1" as="geometry" />
        </mxCell>
        <mxCell id="NipPHCl-mKM_xc_7-Nwc-119" value="&lt;div&gt;PersonSnapStrategyModule 1&lt;br&gt;&lt;/div&gt;&lt;div&gt;(&quot;person&quot;)&lt;/div&gt;" style="rounded=1;whiteSpace=wrap;html=1;fillColor=#d5e8d4;strokeColor=#82b366;" parent="1" vertex="1">
          <mxGeometry x="1160" y="270" width="190" height="50" as="geometry" />
        </mxCell>
        <mxCell id="NipPHCl-mKM_xc_7-Nwc-120" value="根据框抠图，和一些抓拍策略合并抓拍信息" style="text;html=1;strokeColor=none;fillColor=none;align=left;verticalAlign=middle;whiteSpace=wrap;rounded=0;fontSize=19;" parent="1" vertex="1">
          <mxGeometry x="1145" width="260" height="70" as="geometry" />
        </mxCell>
        <mxCell id="NipPHCl-mKM_xc_7-Nwc-123" value="根据框抠图，和一些抓拍策略合并抓拍信息" style="text;html=1;strokeColor=none;fillColor=none;align=left;verticalAlign=middle;whiteSpace=wrap;rounded=0;fontSize=19;" parent="1" vertex="1">
          <mxGeometry x="1120" y="210" width="260" height="70" as="geometry" />
        </mxCell>
        <mxCell id="NipPHCl-mKM_xc_7-Nwc-173" style="edgeStyle=orthogonalEdgeStyle;rounded=0;orthogonalLoop=1;jettySize=auto;html=1;entryX=0;entryY=0.25;entryDx=0;entryDy=0;fontSize=14;" parent="1" source="NipPHCl-mKM_xc_7-Nwc-124" target="NipPHCl-mKM_xc_7-Nwc-172" edge="1">
          <mxGeometry relative="1" as="geometry" />
        </mxCell>
        <mxCell id="NipPHCl-mKM_xc_7-Nwc-124" value="&lt;div style=&quot;font-size: 14px&quot;&gt;SnapMergeModule 1&lt;br style=&quot;font-size: 14px&quot;&gt;&lt;/div&gt;&lt;div style=&quot;font-size: 14px&quot;&gt;(&quot;face|person&quot;)&lt;/div&gt;" style="rounded=1;whiteSpace=wrap;html=1;fillColor=#d5e8d4;strokeColor=#82b366;fontSize=14;" parent="1" vertex="1">
          <mxGeometry x="1440" y="100" width="160" height="50" as="geometry" />
        </mxCell>
        <mxCell id="NipPHCl-mKM_xc_7-Nwc-129" value="融合人脸人体抓拍信息，组成track_id 对" style="text;html=1;strokeColor=none;fillColor=none;align=left;verticalAlign=middle;whiteSpace=wrap;rounded=0;fontSize=19;" parent="1" vertex="1">
          <mxGeometry x="1394" y="30" width="260" height="70" as="geometry" />
        </mxCell>
        <mxCell id="NipPHCl-mKM_xc_7-Nwc-138" style="edgeStyle=orthogonalEdgeStyle;rounded=0;orthogonalLoop=1;jettySize=auto;html=1;entryX=0.144;entryY=1.04;entryDx=0;entryDy=0;entryPerimeter=0;fontSize=14;" parent="1" source="NipPHCl-mKM_xc_7-Nwc-136" target="NipPHCl-mKM_xc_7-Nwc-124" edge="1">
          <mxGeometry relative="1" as="geometry" />
        </mxCell>
        <mxCell id="NipPHCl-mKM_xc_7-Nwc-136" value="&lt;div&gt;InputMoudel&lt;/div&gt;&lt;div&gt;(&quot;img_info_input&quot;)&lt;/div&gt;&lt;div&gt;图片大小信息&lt;/div&gt;" style="rounded=1;whiteSpace=wrap;html=1;fillColor=#dae8fc;strokeColor=#6c8ebf;" parent="1" vertex="1">
          <mxGeometry x="1174.5" y="370" width="160" height="40" as="geometry" />
        </mxCell>
        <mxCell id="NipPHCl-mKM_xc_7-Nwc-139" style="edgeStyle=orthogonalEdgeStyle;rounded=0;orthogonalLoop=1;jettySize=auto;html=1;entryX=0.25;entryY=1;entryDx=0;entryDy=0;fontSize=14;" parent="1" source="NipPHCl-mKM_xc_7-Nwc-137" target="NipPHCl-mKM_xc_7-Nwc-124" edge="1">
          <mxGeometry relative="1" as="geometry" />
        </mxCell>
        <mxCell id="NipPHCl-mKM_xc_7-Nwc-137" value="&lt;div&gt;InputMoudel&lt;/div&gt;&lt;div&gt;(&quot;time_stamp_input&quot;)&lt;/div&gt;&lt;div&gt;图片的时间戳&lt;br&gt;&lt;/div&gt;" style="rounded=1;whiteSpace=wrap;html=1;fillColor=#dae8fc;strokeColor=#6c8ebf;" parent="1" vertex="1">
          <mxGeometry x="1175.5" y="430" width="160" height="40" as="geometry" />
        </mxCell>
        <mxCell id="NipPHCl-mKM_xc_7-Nwc-144" style="edgeStyle=orthogonalEdgeStyle;rounded=0;orthogonalLoop=1;jettySize=auto;html=1;entryX=0.5;entryY=0;entryDx=0;entryDy=0;fontSize=14;" parent="1" source="NipPHCl-mKM_xc_7-Nwc-140" target="NipPHCl-mKM_xc_7-Nwc-142" edge="1">
          <mxGeometry relative="1" as="geometry" />
        </mxCell>
        <mxCell id="NipPHCl-mKM_xc_7-Nwc-140" value="&lt;div&gt;InputMoudel&lt;/div&gt;&lt;div&gt;(&quot;img_info_input&quot;)&lt;/div&gt;&lt;div&gt;图片大小信息&lt;/div&gt;" style="rounded=1;whiteSpace=wrap;html=1;fillColor=#dae8fc;strokeColor=#6c8ebf;" parent="1" vertex="1">
          <mxGeometry x="302" y="500" width="160" height="40" as="geometry" />
        </mxCell>
        <mxCell id="NipPHCl-mKM_xc_7-Nwc-145" style="edgeStyle=orthogonalEdgeStyle;rounded=0;orthogonalLoop=1;jettySize=auto;html=1;entryX=0.25;entryY=0;entryDx=0;entryDy=0;fontSize=14;" parent="1" source="NipPHCl-mKM_xc_7-Nwc-141" target="NipPHCl-mKM_xc_7-Nwc-142" edge="1">
          <mxGeometry relative="1" as="geometry" />
        </mxCell>
        <mxCell id="NipPHCl-mKM_xc_7-Nwc-141" value="&lt;div&gt;InputMoudel&lt;/div&gt;&lt;div&gt;(&quot;time_stamp_input&quot;)&lt;/div&gt;&lt;div&gt;图片的时间戳&lt;br&gt;&lt;/div&gt;" style="rounded=1;whiteSpace=wrap;html=1;fillColor=#dae8fc;strokeColor=#6c8ebf;" parent="1" vertex="1">
          <mxGeometry x="303" y="560" width="160" height="40" as="geometry" />
        </mxCell>
        <mxCell id="NipPHCl-mKM_xc_7-Nwc-152" style="edgeStyle=orthogonalEdgeStyle;rounded=0;orthogonalLoop=1;jettySize=auto;html=1;entryX=0.5;entryY=0;entryDx=0;entryDy=0;fontSize=14;" parent="1" source="NipPHCl-mKM_xc_7-Nwc-142" target="NipPHCl-mKM_xc_7-Nwc-151" edge="1">
          <mxGeometry relative="1" as="geometry" />
        </mxCell>
        <mxCell id="NipPHCl-mKM_xc_7-Nwc-142" value="&lt;div&gt;MultipleObjectTrackingModule 2&lt;br&gt;&lt;/div&gt;&lt;div&gt;(&quot;vehicle&quot;)&lt;/div&gt;&lt;div&gt;机动车&lt;/div&gt;" style="rounded=1;whiteSpace=wrap;html=1;fillColor=#d5e8d4;strokeColor=#82b366;" parent="1" vertex="1">
          <mxGeometry x="550" y="635" width="200" height="50" as="geometry" />
        </mxCell>
        <mxCell id="NipPHCl-mKM_xc_7-Nwc-147" value="&lt;div&gt;参数 2&lt;br&gt;&lt;/div&gt;" style="text;whiteSpace=wrap;html=1;fontSize=20;" parent="1" vertex="1">
          <mxGeometry x="550" y="480" width="80" height="30" as="geometry" />
        </mxCell>
        <mxCell id="NipPHCl-mKM_xc_7-Nwc-148" value="&lt;div&gt;参数 1&lt;br&gt;&lt;/div&gt;" style="text;whiteSpace=wrap;html=1;fontSize=20;" parent="1" vertex="1">
          <mxGeometry x="490" y="540" width="80" height="30" as="geometry" />
        </mxCell>
        <mxCell id="NipPHCl-mKM_xc_7-Nwc-149" value="&lt;div&gt;参数 0&lt;br&gt;&lt;/div&gt;" style="text;whiteSpace=wrap;html=1;fontSize=20;" parent="1" vertex="1">
          <mxGeometry x="476" y="620" width="80" height="30" as="geometry" />
        </mxCell>
        <mxCell id="NipPHCl-mKM_xc_7-Nwc-162" style="edgeStyle=orthogonalEdgeStyle;rounded=0;orthogonalLoop=1;jettySize=auto;html=1;fontSize=14;" parent="1" source="NipPHCl-mKM_xc_7-Nwc-151" target="NipPHCl-mKM_xc_7-Nwc-159" edge="1">
          <mxGeometry relative="1" as="geometry" />
        </mxCell>
        <mxCell id="NipPHCl-mKM_xc_7-Nwc-151" value="&lt;div&gt;MotorVehicleInfoGeneratorModule 0&lt;br&gt;&lt;/div&gt;&lt;div&gt;(&quot;vehicle&quot;)&lt;/div&gt;" style="rounded=1;whiteSpace=wrap;html=1;fillColor=#d5e8d4;strokeColor=#82b366;" parent="1" vertex="1">
          <mxGeometry x="810" y="720" width="220" height="50" as="geometry" />
        </mxCell>
        <mxCell id="NipPHCl-mKM_xc_7-Nwc-158" value="做机动车 车牌 车前窗框融合" style="text;html=1;strokeColor=none;fillColor=none;align=left;verticalAlign=middle;whiteSpace=wrap;rounded=0;fontSize=19;" parent="1" vertex="1">
          <mxGeometry x="800" y="580" width="260" height="70" as="geometry" />
        </mxCell>
        <mxCell id="NipPHCl-mKM_xc_7-Nwc-174" style="edgeStyle=orthogonalEdgeStyle;rounded=0;orthogonalLoop=1;jettySize=auto;html=1;entryX=0;entryY=0.5;entryDx=0;entryDy=0;fontSize=14;startArrow=none;" parent="1" source="NipPHCl-mKM_xc_7-Nwc-196" target="NipPHCl-mKM_xc_7-Nwc-172" edge="1">
          <mxGeometry relative="1" as="geometry" />
        </mxCell>
        <mxCell id="NipPHCl-mKM_xc_7-Nwc-159" value="&lt;div&gt;MotorSnapStrategyModule 0&lt;br&gt;&lt;/div&gt;&lt;div&gt;(&quot;vehicle&quot;)&lt;/div&gt;" style="rounded=1;whiteSpace=wrap;html=1;fillColor=#d5e8d4;strokeColor=#82b366;" parent="1" vertex="1">
          <mxGeometry x="1165" y="720" width="220" height="50" as="geometry" />
        </mxCell>
        <mxCell id="NipPHCl-mKM_xc_7-Nwc-167" style="edgeStyle=orthogonalEdgeStyle;rounded=0;orthogonalLoop=1;jettySize=auto;html=1;entryX=0.091;entryY=1;entryDx=0;entryDy=0;entryPerimeter=0;fontSize=14;" parent="1" source="NipPHCl-mKM_xc_7-Nwc-163" target="NipPHCl-mKM_xc_7-Nwc-159" edge="1">
          <mxGeometry relative="1" as="geometry" />
        </mxCell>
        <mxCell id="NipPHCl-mKM_xc_7-Nwc-178" style="edgeStyle=orthogonalEdgeStyle;rounded=0;orthogonalLoop=1;jettySize=auto;html=1;entryX=0.5;entryY=0;entryDx=0;entryDy=0;fontSize=14;" parent="1" source="NipPHCl-mKM_xc_7-Nwc-163" target="NipPHCl-mKM_xc_7-Nwc-176" edge="1">
          <mxGeometry relative="1" as="geometry">
            <Array as="points">
              <mxPoint x="730" y="820" />
              <mxPoint x="730" y="1060" />
              <mxPoint x="1070" y="1060" />
            </Array>
          </mxGeometry>
        </mxCell>
        <mxCell id="NipPHCl-mKM_xc_7-Nwc-163" value="&lt;div&gt;InputMoudel&lt;/div&gt;&lt;div&gt;(&quot;img_info_input&quot;)&lt;/div&gt;&lt;div&gt;图片大小信息&lt;/div&gt;" style="rounded=1;whiteSpace=wrap;html=1;fillColor=#dae8fc;strokeColor=#6c8ebf;" parent="1" vertex="1">
          <mxGeometry x="840" y="800" width="160" height="40" as="geometry" />
        </mxCell>
        <mxCell id="NipPHCl-mKM_xc_7-Nwc-168" style="edgeStyle=orthogonalEdgeStyle;rounded=0;orthogonalLoop=1;jettySize=auto;html=1;fontSize=14;entryX=0.159;entryY=1;entryDx=0;entryDy=0;entryPerimeter=0;" parent="1" source="NipPHCl-mKM_xc_7-Nwc-164" target="NipPHCl-mKM_xc_7-Nwc-159" edge="1">
          <mxGeometry relative="1" as="geometry">
            <mxPoint x="1200" y="780" as="targetPoint" />
          </mxGeometry>
        </mxCell>
        <mxCell id="NipPHCl-mKM_xc_7-Nwc-180" style="edgeStyle=orthogonalEdgeStyle;rounded=0;orthogonalLoop=1;jettySize=auto;html=1;entryX=0.695;entryY=0.02;entryDx=0;entryDy=0;entryPerimeter=0;fontSize=14;" parent="1" source="NipPHCl-mKM_xc_7-Nwc-164" target="NipPHCl-mKM_xc_7-Nwc-176" edge="1">
          <mxGeometry relative="1" as="geometry">
            <Array as="points">
              <mxPoint x="770" y="880" />
              <mxPoint x="770" y="995" />
              <mxPoint x="1109" y="995" />
            </Array>
          </mxGeometry>
        </mxCell>
        <mxCell id="NipPHCl-mKM_xc_7-Nwc-164" value="&lt;div&gt;InputMoudel&lt;/div&gt;&lt;div&gt;(&quot;time_stamp_input&quot;)&lt;/div&gt;&lt;div&gt;图片的时间戳&lt;br&gt;&lt;/div&gt;" style="rounded=1;whiteSpace=wrap;html=1;fillColor=#dae8fc;strokeColor=#6c8ebf;" parent="1" vertex="1">
          <mxGeometry x="840" y="860" width="160" height="40" as="geometry" />
        </mxCell>
        <mxCell id="NipPHCl-mKM_xc_7-Nwc-169" style="edgeStyle=orthogonalEdgeStyle;rounded=0;orthogonalLoop=1;jettySize=auto;html=1;entryX=0.25;entryY=1;entryDx=0;entryDy=0;fontSize=14;" parent="1" source="NipPHCl-mKM_xc_7-Nwc-166" target="NipPHCl-mKM_xc_7-Nwc-159" edge="1">
          <mxGeometry relative="1" as="geometry" />
        </mxCell>
        <mxCell id="NipPHCl-mKM_xc_7-Nwc-166" value="&lt;div&gt;InputMoudel&lt;/div&gt;&lt;div&gt;(&quot;image_input&quot;)&lt;/div&gt;" style="rounded=1;whiteSpace=wrap;html=1;fillColor=#cce5ff;strokeColor=#36393d;" parent="1" vertex="1">
          <mxGeometry x="840" y="920" width="160" height="40" as="geometry" />
        </mxCell>
        <mxCell id="NipPHCl-mKM_xc_7-Nwc-170" value="抠图，时间戳，框信息融合为机动车信息" style="text;html=1;strokeColor=none;fillColor=none;align=left;verticalAlign=middle;whiteSpace=wrap;rounded=0;fontSize=19;" parent="1" vertex="1">
          <mxGeometry x="1145" y="625" width="260" height="70" as="geometry" />
        </mxCell>
        <mxCell id="NipPHCl-mKM_xc_7-Nwc-172" value="&lt;div&gt;SnapshotResultModule 0&lt;br&gt;&lt;/div&gt;&lt;div&gt;(&quot;全目标&quot;)&lt;/div&gt;" style="rounded=1;whiteSpace=wrap;html=1;fillColor=#d5e8d4;strokeColor=#82b366;" parent="1" vertex="1">
          <mxGeometry x="1780" y="440" width="220" height="220" as="geometry" />
        </mxCell>
        <mxCell id="NipPHCl-mKM_xc_7-Nwc-185" value="" style="edgeStyle=orthogonalEdgeStyle;rounded=0;orthogonalLoop=1;jettySize=auto;html=1;fontSize=14;" parent="1" source="NipPHCl-mKM_xc_7-Nwc-176" target="NipPHCl-mKM_xc_7-Nwc-181" edge="1">
          <mxGeometry relative="1" as="geometry" />
        </mxCell>
        <mxCell id="NipPHCl-mKM_xc_7-Nwc-176" value="&lt;div&gt;MultipleObjectTrackingModule 2&lt;br&gt;&lt;/div&gt;&lt;div&gt;(&quot;non-vehicle&quot;)&lt;/div&gt;&lt;div&gt;非机动车&lt;br&gt;&lt;/div&gt;" style="rounded=1;whiteSpace=wrap;html=1;fillColor=#d5e8d4;strokeColor=#82b366;" parent="1" vertex="1">
          <mxGeometry x="970" y="1090" width="200" height="50" as="geometry" />
        </mxCell>
        <mxCell id="NipPHCl-mKM_xc_7-Nwc-191" style="edgeStyle=orthogonalEdgeStyle;rounded=0;orthogonalLoop=1;jettySize=auto;html=1;entryX=0;entryY=0.75;entryDx=0;entryDy=0;fontSize=14;" parent="1" source="NipPHCl-mKM_xc_7-Nwc-181" target="NipPHCl-mKM_xc_7-Nwc-172" edge="1">
          <mxGeometry relative="1" as="geometry" />
        </mxCell>
        <mxCell id="NipPHCl-mKM_xc_7-Nwc-181" value="&lt;div&gt;NonMotorSnapStrategyModule 0&lt;br&gt;&lt;/div&gt;&lt;div&gt;&lt;div&gt;(&quot;non-vehicle&quot;)&lt;/div&gt;&lt;/div&gt;" style="rounded=1;whiteSpace=wrap;html=1;fillColor=#d5e8d4;strokeColor=#82b366;" parent="1" vertex="1">
          <mxGeometry x="1280" y="1090" width="220" height="50" as="geometry" />
        </mxCell>
        <mxCell id="NipPHCl-mKM_xc_7-Nwc-188" style="edgeStyle=orthogonalEdgeStyle;rounded=0;orthogonalLoop=1;jettySize=auto;html=1;entryX=0.077;entryY=0.98;entryDx=0;entryDy=0;entryPerimeter=0;fontSize=14;" parent="1" source="NipPHCl-mKM_xc_7-Nwc-182" target="NipPHCl-mKM_xc_7-Nwc-181" edge="1">
          <mxGeometry relative="1" as="geometry" />
        </mxCell>
        <mxCell id="NipPHCl-mKM_xc_7-Nwc-182" value="&lt;div&gt;InputMoudel&lt;/div&gt;&lt;div&gt;(&quot;img_info_input&quot;)&lt;/div&gt;&lt;div&gt;图片大小信息&lt;/div&gt;" style="rounded=1;whiteSpace=wrap;html=1;fillColor=#dae8fc;strokeColor=#6c8ebf;" parent="1" vertex="1">
          <mxGeometry x="985" y="1160" width="160" height="40" as="geometry" />
        </mxCell>
        <mxCell id="NipPHCl-mKM_xc_7-Nwc-189" style="edgeStyle=orthogonalEdgeStyle;rounded=0;orthogonalLoop=1;jettySize=auto;html=1;entryX=0.214;entryY=0.98;entryDx=0;entryDy=0;entryPerimeter=0;fontSize=14;" parent="1" source="NipPHCl-mKM_xc_7-Nwc-183" target="NipPHCl-mKM_xc_7-Nwc-181" edge="1">
          <mxGeometry relative="1" as="geometry" />
        </mxCell>
        <mxCell id="NipPHCl-mKM_xc_7-Nwc-183" value="&lt;div&gt;InputMoudel&lt;/div&gt;&lt;div&gt;(&quot;time_stamp_input&quot;)&lt;/div&gt;&lt;div&gt;图片的时间戳&lt;br&gt;&lt;/div&gt;" style="rounded=1;whiteSpace=wrap;html=1;fillColor=#dae8fc;strokeColor=#6c8ebf;" parent="1" vertex="1">
          <mxGeometry x="985" y="1220" width="160" height="40" as="geometry" />
        </mxCell>
        <mxCell id="NipPHCl-mKM_xc_7-Nwc-190" style="edgeStyle=orthogonalEdgeStyle;rounded=0;orthogonalLoop=1;jettySize=auto;html=1;fontSize=14;" parent="1" source="NipPHCl-mKM_xc_7-Nwc-184" target="NipPHCl-mKM_xc_7-Nwc-181" edge="1">
          <mxGeometry relative="1" as="geometry" />
        </mxCell>
        <mxCell id="NipPHCl-mKM_xc_7-Nwc-184" value="&lt;div&gt;InputMoudel&lt;/div&gt;&lt;div&gt;(&quot;image_input&quot;)&lt;/div&gt;" style="rounded=1;whiteSpace=wrap;html=1;fillColor=#cce5ff;strokeColor=#36393d;" parent="1" vertex="1">
          <mxGeometry x="985" y="1280" width="160" height="40" as="geometry" />
        </mxCell>
        <mxCell id="NipPHCl-mKM_xc_7-Nwc-192" value="&lt;div style=&quot;color: rgb(212, 212, 212); background-color: rgb(30, 30, 30); font-family: &amp;quot;consolas&amp;quot;, &amp;quot;courier new&amp;quot;, monospace; font-weight: normal; font-size: 16px; line-height: 22px;&quot;&gt;&lt;div&gt;&lt;span style=&quot;color: #d4d4d4&quot;&gt;&amp;nbsp;&amp;nbsp;&lt;/span&gt;&lt;span style=&quot;color: #4ec9b0&quot;&gt;pureeye&lt;/span&gt;&lt;span style=&quot;color: #d4d4d4&quot;&gt;::spMessage&amp;nbsp;&lt;/span&gt;&lt;span style=&quot;color: #9cdcfe&quot;&gt;output&lt;/span&gt;&lt;span style=&quot;color: #d4d4d4&quot;&gt;&amp;nbsp;=&amp;nbsp;&lt;/span&gt;&lt;span style=&quot;color: #9cdcfe&quot;&gt;output_result_&lt;/span&gt;&lt;span style=&quot;color: #d4d4d4&quot;&gt;-&amp;gt;&lt;/span&gt;&lt;span style=&quot;color: #dcdcaa&quot;&gt;GetOutput&lt;/span&gt;&lt;span style=&quot;color: #d4d4d4&quot;&gt;();&lt;/span&gt;&lt;/div&gt;&lt;br&gt;&lt;/div&gt;" style="text;whiteSpace=wrap;html=1;fontSize=14;" parent="1" vertex="1">
          <mxGeometry x="16" y="1696" width="550" height="60" as="geometry" />
        </mxCell>
        <mxCell id="NipPHCl-mKM_xc_7-Nwc-193" value="&lt;div style=&quot;color: rgb(212, 212, 212); background-color: rgb(30, 30, 30); font-family: &amp;quot;consolas&amp;quot;, &amp;quot;courier new&amp;quot;, monospace; font-weight: normal; font-size: 16px; line-height: 22px;&quot;&gt;&lt;div&gt;&lt;span style=&quot;color: #9cdcfe&quot;&gt;snap_pair_message&lt;/span&gt;&lt;span style=&quot;color: #d4d4d4&quot;&gt;&amp;nbsp;=&amp;nbsp;&lt;/span&gt;&lt;span style=&quot;color: #4ec9b0&quot;&gt;std&lt;/span&gt;&lt;span style=&quot;color: #d4d4d4&quot;&gt;::&lt;/span&gt;&lt;span style=&quot;color: #dcdcaa&quot;&gt;static_pointer_cast&lt;/span&gt;&lt;span style=&quot;color: #d4d4d4&quot;&gt;&amp;lt;&lt;/span&gt;&lt;span style=&quot;color: #4ec9b0&quot;&gt;pureeye&lt;/span&gt;&lt;span style=&quot;color: #d4d4d4&quot;&gt;::&lt;/span&gt;&lt;span style=&quot;color: #4ec9b0&quot;&gt;snap_merge&lt;/span&gt;&lt;span style=&quot;color: #d4d4d4&quot;&gt;::&lt;/span&gt;&lt;span style=&quot;color: #4ec9b0&quot;&gt;SnapPairMessage&lt;/span&gt;&lt;span style=&quot;color: #d4d4d4&quot;&gt;&amp;gt;(&lt;/span&gt;&lt;span style=&quot;color: #9cdcfe&quot;&gt;messages&lt;/span&gt;&lt;span style=&quot;color: #dcdcaa&quot;&gt;[&lt;/span&gt;&lt;span style=&quot;color: #b5cea8&quot;&gt;0&lt;/span&gt;&lt;span style=&quot;color: #dcdcaa&quot;&gt;]&lt;/span&gt;&lt;span style=&quot;color: #d4d4d4&quot;&gt;);&lt;/span&gt;&lt;/div&gt;&lt;div&gt;&lt;span style=&quot;color: #d4d4d4&quot;&gt;&amp;nbsp;&amp;nbsp;&amp;nbsp;&amp;nbsp;&lt;/span&gt;&lt;span style=&quot;color: #9cdcfe&quot;&gt;all_rect_message&lt;/span&gt;&lt;span style=&quot;color: #d4d4d4&quot;&gt;&amp;nbsp;=&amp;nbsp;&lt;/span&gt;&lt;span style=&quot;color: #4ec9b0&quot;&gt;std&lt;/span&gt;&lt;span style=&quot;color: #d4d4d4&quot;&gt;::&lt;/span&gt;&lt;span style=&quot;color: #dcdcaa&quot;&gt;dynamic_pointer_cast&lt;/span&gt;&lt;span style=&quot;color: #d4d4d4&quot;&gt;&amp;lt;&lt;/span&gt;&lt;span style=&quot;color: #4ec9b0&quot;&gt;pureeye&lt;/span&gt;&lt;span style=&quot;color: #d4d4d4&quot;&gt;::&lt;/span&gt;&lt;span style=&quot;color: #4ec9b0&quot;&gt;vision&lt;/span&gt;&lt;span style=&quot;color: #d4d4d4&quot;&gt;::&lt;/span&gt;&lt;span style=&quot;color: #4ec9b0&quot;&gt;RectsMessage&lt;/span&gt;&lt;span style=&quot;color: #d4d4d4&quot;&gt;&amp;gt;(&lt;/span&gt;&lt;span style=&quot;color: #9cdcfe&quot;&gt;messages&lt;/span&gt;&lt;span style=&quot;color: #dcdcaa&quot;&gt;[&lt;/span&gt;&lt;span style=&quot;color: #b5cea8&quot;&gt;1&lt;/span&gt;&lt;span style=&quot;color: #dcdcaa&quot;&gt;]&lt;/span&gt;&lt;span style=&quot;color: #d4d4d4&quot;&gt;);&lt;/span&gt;&lt;/div&gt;&lt;div&gt;&lt;span style=&quot;color: #d4d4d4&quot;&gt;&amp;nbsp;&amp;nbsp;&amp;nbsp;&amp;nbsp;&lt;/span&gt;&lt;span style=&quot;color: #9cdcfe&quot;&gt;face_landmark_message&lt;/span&gt;&lt;span style=&quot;color: #d4d4d4&quot;&gt;&amp;nbsp;=&amp;nbsp;&lt;/span&gt;&lt;span style=&quot;color: #4ec9b0&quot;&gt;std&lt;/span&gt;&lt;span style=&quot;color: #d4d4d4&quot;&gt;::&lt;/span&gt;&lt;span style=&quot;color: #dcdcaa&quot;&gt;dynamic_pointer_cast&lt;/span&gt;&lt;span style=&quot;color: #d4d4d4&quot;&gt;&amp;lt;&lt;/span&gt;&lt;span style=&quot;color: #4ec9b0&quot;&gt;pureeye&lt;/span&gt;&lt;span style=&quot;color: #d4d4d4&quot;&gt;::&lt;/span&gt;&lt;span style=&quot;color: #4ec9b0&quot;&gt;vision&lt;/span&gt;&lt;span style=&quot;color: #d4d4d4&quot;&gt;::&lt;/span&gt;&lt;span style=&quot;color: #4ec9b0&quot;&gt;LandmarksMessage&lt;/span&gt;&lt;span style=&quot;color: #d4d4d4&quot;&gt;&amp;gt;(&lt;/span&gt;&lt;span style=&quot;color: #9cdcfe&quot;&gt;messages&lt;/span&gt;&lt;span style=&quot;color: #dcdcaa&quot;&gt;[&lt;/span&gt;&lt;span style=&quot;color: #b5cea8&quot;&gt;2&lt;/span&gt;&lt;span style=&quot;color: #dcdcaa&quot;&gt;]&lt;/span&gt;&lt;span style=&quot;color: #d4d4d4&quot;&gt;);&lt;/span&gt;&lt;/div&gt;&lt;div&gt;&lt;span style=&quot;color: #d4d4d4&quot;&gt;&amp;nbsp;&amp;nbsp;&amp;nbsp;&amp;nbsp;&lt;/span&gt;&lt;span style=&quot;color: #9cdcfe&quot;&gt;face_feature_message&lt;/span&gt;&lt;span style=&quot;color: #d4d4d4&quot;&gt;&amp;nbsp;=&amp;nbsp;&lt;/span&gt;&lt;span style=&quot;color: #4ec9b0&quot;&gt;std&lt;/span&gt;&lt;span style=&quot;color: #d4d4d4&quot;&gt;::&lt;/span&gt;&lt;span style=&quot;color: #dcdcaa&quot;&gt;dynamic_pointer_cast&lt;/span&gt;&lt;span style=&quot;color: #d4d4d4&quot;&gt;&amp;lt;&lt;/span&gt;&lt;span style=&quot;color: #4ec9b0&quot;&gt;pureeye&lt;/span&gt;&lt;span style=&quot;color: #d4d4d4&quot;&gt;::&lt;/span&gt;&lt;span style=&quot;color: #4ec9b0&quot;&gt;vision&lt;/span&gt;&lt;span style=&quot;color: #d4d4d4&quot;&gt;::&lt;/span&gt;&lt;span style=&quot;color: #4ec9b0&quot;&gt;FaceMetricFeaturesMessage&lt;/span&gt;&lt;span style=&quot;color: #d4d4d4&quot;&gt;&amp;gt;(&lt;/span&gt;&lt;span style=&quot;color: #9cdcfe&quot;&gt;messages&lt;/span&gt;&lt;span style=&quot;color: #dcdcaa&quot;&gt;[&lt;/span&gt;&lt;span style=&quot;color: #b5cea8&quot;&gt;3&lt;/span&gt;&lt;span style=&quot;color: #dcdcaa&quot;&gt;]&lt;/span&gt;&lt;span style=&quot;color: #d4d4d4&quot;&gt;);&lt;/span&gt;&lt;/div&gt;&lt;div&gt;&lt;span style=&quot;color: #d4d4d4&quot;&gt;&amp;nbsp;&amp;nbsp;&amp;nbsp;&amp;nbsp;&lt;/span&gt;&lt;span style=&quot;color: #9cdcfe&quot;&gt;face_info_message&lt;/span&gt;&lt;span style=&quot;color: #d4d4d4&quot;&gt;&amp;nbsp;=&amp;nbsp;&lt;/span&gt;&lt;span style=&quot;color: #4ec9b0&quot;&gt;std&lt;/span&gt;&lt;span style=&quot;color: #d4d4d4&quot;&gt;::&lt;/span&gt;&lt;span style=&quot;color: #dcdcaa&quot;&gt;dynamic_pointer_cast&lt;/span&gt;&lt;span style=&quot;color: #d4d4d4&quot;&gt;&amp;lt;&lt;/span&gt;&lt;span style=&quot;color: #4ec9b0&quot;&gt;pureeye&lt;/span&gt;&lt;span style=&quot;color: #d4d4d4&quot;&gt;::&lt;/span&gt;&lt;span style=&quot;color: #4ec9b0&quot;&gt;face_snap&lt;/span&gt;&lt;span style=&quot;color: #d4d4d4&quot;&gt;::&lt;/span&gt;&lt;span style=&quot;color: #4ec9b0&quot;&gt;FaceInfoMessage&lt;/span&gt;&lt;span style=&quot;color: #d4d4d4&quot;&gt;&amp;gt;(&lt;/span&gt;&lt;span style=&quot;color: #9cdcfe&quot;&gt;messages&lt;/span&gt;&lt;span style=&quot;color: #dcdcaa&quot;&gt;[&lt;/span&gt;&lt;span style=&quot;color: #b5cea8&quot;&gt;4&lt;/span&gt;&lt;span style=&quot;color: #dcdcaa&quot;&gt;]&lt;/span&gt;&lt;span style=&quot;color: #d4d4d4&quot;&gt;);&lt;/span&gt;&lt;/div&gt;&lt;div&gt;&lt;span style=&quot;color: #d4d4d4&quot;&gt;&amp;nbsp;&amp;nbsp;&amp;nbsp;&amp;nbsp;&lt;/span&gt;&lt;span style=&quot;color: #9cdcfe&quot;&gt;person_info_message&lt;/span&gt;&lt;span style=&quot;color: #d4d4d4&quot;&gt;&amp;nbsp;=&amp;nbsp;&lt;/span&gt;&lt;span style=&quot;color: #4ec9b0&quot;&gt;std&lt;/span&gt;&lt;span style=&quot;color: #d4d4d4&quot;&gt;::&lt;/span&gt;&lt;span style=&quot;color: #dcdcaa&quot;&gt;dynamic_pointer_cast&lt;/span&gt;&lt;span style=&quot;color: #d4d4d4&quot;&gt;&amp;lt;&lt;/span&gt;&lt;span style=&quot;color: #4ec9b0&quot;&gt;pureeye&lt;/span&gt;&lt;span style=&quot;color: #d4d4d4&quot;&gt;::&lt;/span&gt;&lt;span style=&quot;color: #4ec9b0&quot;&gt;person_snap&lt;/span&gt;&lt;span style=&quot;color: #d4d4d4&quot;&gt;::&lt;/span&gt;&lt;span style=&quot;color: #4ec9b0&quot;&gt;PersonInfoMessage&lt;/span&gt;&lt;span style=&quot;color: #d4d4d4&quot;&gt;&amp;gt;(&lt;/span&gt;&lt;span style=&quot;color: #9cdcfe&quot;&gt;messages&lt;/span&gt;&lt;span style=&quot;color: #dcdcaa&quot;&gt;[&lt;/span&gt;&lt;span style=&quot;color: #b5cea8&quot;&gt;5&lt;/span&gt;&lt;span style=&quot;color: #dcdcaa&quot;&gt;]&lt;/span&gt;&lt;span style=&quot;color: #d4d4d4&quot;&gt;);&lt;/span&gt;&lt;/div&gt;&lt;div&gt;&lt;span style=&quot;color: #d4d4d4&quot;&gt;&amp;nbsp;&amp;nbsp;&amp;nbsp;&amp;nbsp;&lt;/span&gt;&lt;span style=&quot;color: #9cdcfe&quot;&gt;cvmat_message&lt;/span&gt;&lt;span style=&quot;color: #d4d4d4&quot;&gt;&amp;nbsp;=&amp;nbsp;&lt;/span&gt;&lt;span style=&quot;color: #4ec9b0&quot;&gt;std&lt;/span&gt;&lt;span style=&quot;color: #d4d4d4&quot;&gt;::&lt;/span&gt;&lt;span style=&quot;color: #dcdcaa&quot;&gt;dynamic_pointer_cast&lt;/span&gt;&lt;span style=&quot;color: #d4d4d4&quot;&gt;&amp;lt;&lt;/span&gt;&lt;span style=&quot;color: #4ec9b0&quot;&gt;pureeye&lt;/span&gt;&lt;span style=&quot;color: #d4d4d4&quot;&gt;::&lt;/span&gt;&lt;span style=&quot;color: #4ec9b0&quot;&gt;vision&lt;/span&gt;&lt;span style=&quot;color: #d4d4d4&quot;&gt;::&lt;/span&gt;&lt;span style=&quot;color: #4ec9b0&quot;&gt;CvMatMessage&lt;/span&gt;&lt;span style=&quot;color: #d4d4d4&quot;&gt;&amp;gt;(&lt;/span&gt;&lt;span style=&quot;color: #9cdcfe&quot;&gt;messages&lt;/span&gt;&lt;span style=&quot;color: #dcdcaa&quot;&gt;[&lt;/span&gt;&lt;span style=&quot;color: #b5cea8&quot;&gt;6&lt;/span&gt;&lt;span style=&quot;color: #dcdcaa&quot;&gt;]&lt;/span&gt;&lt;span style=&quot;color: #d4d4d4&quot;&gt;);&lt;/span&gt;&lt;/div&gt;&lt;div&gt;&lt;span style=&quot;color: #d4d4d4&quot;&gt;&amp;nbsp;&amp;nbsp;&amp;nbsp;&amp;nbsp;&lt;/span&gt;&lt;span style=&quot;color: #9cdcfe&quot;&gt;motor_snap_message&lt;/span&gt;&lt;span style=&quot;color: #d4d4d4&quot;&gt;&amp;nbsp;=&amp;nbsp;&lt;/span&gt;&lt;span style=&quot;color: #4ec9b0&quot;&gt;std&lt;/span&gt;&lt;span style=&quot;color: #d4d4d4&quot;&gt;::&lt;/span&gt;&lt;span style=&quot;color: #dcdcaa&quot;&gt;dynamic_pointer_cast&lt;/span&gt;&lt;span style=&quot;color: #d4d4d4&quot;&gt;&amp;lt;&lt;/span&gt;&lt;span style=&quot;color: #4ec9b0&quot;&gt;pureeye&lt;/span&gt;&lt;span style=&quot;color: #d4d4d4&quot;&gt;::&lt;/span&gt;&lt;span style=&quot;color: #4ec9b0&quot;&gt;traffic_snap&lt;/span&gt;&lt;span style=&quot;color: #d4d4d4&quot;&gt;::&lt;/span&gt;&lt;span style=&quot;color: #4ec9b0&quot;&gt;MotorSnapsMessage&lt;/span&gt;&lt;span style=&quot;color: #d4d4d4&quot;&gt;&amp;gt;(&lt;/span&gt;&lt;span style=&quot;color: #9cdcfe&quot;&gt;messages&lt;/span&gt;&lt;span style=&quot;color: #dcdcaa&quot;&gt;[&lt;/span&gt;&lt;span style=&quot;color: #b5cea8&quot;&gt;7&lt;/span&gt;&lt;span style=&quot;color: #dcdcaa&quot;&gt;]&lt;/span&gt;&lt;span style=&quot;color: #d4d4d4&quot;&gt;);&lt;/span&gt;&lt;/div&gt;&lt;div&gt;&lt;span style=&quot;color: #d4d4d4&quot;&gt;&amp;nbsp;&amp;nbsp;&amp;nbsp;&amp;nbsp;&lt;/span&gt;&lt;span style=&quot;color: #9cdcfe&quot;&gt;non_motor_snap_message&lt;/span&gt;&lt;span style=&quot;color: #d4d4d4&quot;&gt;&amp;nbsp;=&amp;nbsp;&lt;/span&gt;&lt;span style=&quot;color: #4ec9b0&quot;&gt;std&lt;/span&gt;&lt;span style=&quot;color: #d4d4d4&quot;&gt;::&lt;/span&gt;&lt;span style=&quot;color: #dcdcaa&quot;&gt;dynamic_pointer_cast&lt;/span&gt;&lt;span style=&quot;color: #d4d4d4&quot;&gt;&amp;lt;&lt;/span&gt;&lt;span style=&quot;color: #4ec9b0&quot;&gt;pureeye&lt;/span&gt;&lt;span style=&quot;color: #d4d4d4&quot;&gt;::&lt;/span&gt;&lt;span style=&quot;color: #4ec9b0&quot;&gt;traffic_snap&lt;/span&gt;&lt;span style=&quot;color: #d4d4d4&quot;&gt;::&lt;/span&gt;&lt;span style=&quot;color: #4ec9b0&quot;&gt;NonMotorSnapsMessage&lt;/span&gt;&lt;span style=&quot;color: #d4d4d4&quot;&gt;&amp;gt;(&lt;/span&gt;&lt;span style=&quot;color: #9cdcfe&quot;&gt;messages&lt;/span&gt;&lt;span style=&quot;color: #dcdcaa&quot;&gt;[&lt;/span&gt;&lt;span style=&quot;color: #b5cea8&quot;&gt;8&lt;/span&gt;&lt;span style=&quot;color: #dcdcaa&quot;&gt;]&lt;/span&gt;&lt;span style=&quot;color: #d4d4d4&quot;&gt;);&lt;/span&gt;&lt;/div&gt;&lt;br&gt;&lt;div&gt;&lt;span style=&quot;color: #d4d4d4&quot;&gt;&amp;nbsp;&amp;nbsp;&amp;nbsp;&amp;nbsp;&lt;/span&gt;&lt;span style=&quot;color: #9cdcfe&quot;&gt;motor_info_messages&lt;/span&gt;&lt;span style=&quot;color: #d4d4d4&quot;&gt;&amp;nbsp;=&amp;nbsp;&lt;/span&gt;&lt;span style=&quot;color: #4ec9b0&quot;&gt;std&lt;/span&gt;&lt;span style=&quot;color: #d4d4d4&quot;&gt;::&lt;/span&gt;&lt;span style=&quot;color: #dcdcaa&quot;&gt;dynamic_pointer_cast&lt;/span&gt;&lt;span style=&quot;color: #d4d4d4&quot;&gt;&amp;lt;&lt;/span&gt;&lt;span style=&quot;color: #4ec9b0&quot;&gt;pureeye&lt;/span&gt;&lt;span style=&quot;color: #d4d4d4&quot;&gt;::&lt;/span&gt;&lt;span style=&quot;color: #4ec9b0&quot;&gt;traffic_snap&lt;/span&gt;&lt;span style=&quot;color: #d4d4d4&quot;&gt;::&lt;/span&gt;&lt;span style=&quot;color: #4ec9b0&quot;&gt;MotorInfoMessage&lt;/span&gt;&lt;span style=&quot;color: #d4d4d4&quot;&gt;&amp;gt;(&lt;/span&gt;&lt;span style=&quot;color: #9cdcfe&quot;&gt;messages&lt;/span&gt;&lt;span style=&quot;color: #dcdcaa&quot;&gt;[&lt;/span&gt;&lt;span style=&quot;color: #b5cea8&quot;&gt;9&lt;/span&gt;&lt;span style=&quot;color: #dcdcaa&quot;&gt;]&lt;/span&gt;&lt;span style=&quot;color: #d4d4d4&quot;&gt;);&lt;/span&gt;&lt;/div&gt;&lt;div&gt;&lt;span style=&quot;color: #d4d4d4&quot;&gt;&amp;nbsp;&amp;nbsp;&amp;nbsp;&amp;nbsp;&lt;/span&gt;&lt;span style=&quot;color: #9cdcfe&quot;&gt;non_motor_info_messages&lt;/span&gt;&lt;span style=&quot;color: #d4d4d4&quot;&gt;&amp;nbsp;=&amp;nbsp;&lt;/span&gt;&lt;span style=&quot;color: #4ec9b0&quot;&gt;std&lt;/span&gt;&lt;span style=&quot;color: #d4d4d4&quot;&gt;::&lt;/span&gt;&lt;span style=&quot;color: #dcdcaa&quot;&gt;dynamic_pointer_cast&lt;/span&gt;&lt;span style=&quot;color: #d4d4d4&quot;&gt;&amp;lt;&lt;/span&gt;&lt;span style=&quot;color: #4ec9b0&quot;&gt;pureeye&lt;/span&gt;&lt;span style=&quot;color: #d4d4d4&quot;&gt;::&lt;/span&gt;&lt;span style=&quot;color: #4ec9b0&quot;&gt;traffic_snap&lt;/span&gt;&lt;span style=&quot;color: #d4d4d4&quot;&gt;::&lt;/span&gt;&lt;span style=&quot;color: #4ec9b0&quot;&gt;NonMotorInfoMessage&lt;/span&gt;&lt;span style=&quot;color: #d4d4d4&quot;&gt;&amp;gt;(&lt;/span&gt;&lt;span style=&quot;color: #9cdcfe&quot;&gt;messages&lt;/span&gt;&lt;span style=&quot;color: #dcdcaa&quot;&gt;[&lt;/span&gt;&lt;span style=&quot;color: #b5cea8&quot;&gt;10&lt;/span&gt;&lt;span style=&quot;color: #dcdcaa&quot;&gt;]&lt;/span&gt;&lt;span style=&quot;color: #d4d4d4&quot;&gt;);&lt;/span&gt;&lt;/div&gt;&lt;br&gt;&lt;div&gt;&lt;span style=&quot;color: #d4d4d4&quot;&gt;&amp;nbsp;&amp;nbsp;&amp;nbsp;&amp;nbsp;&lt;/span&gt;&lt;span style=&quot;color: #9cdcfe&quot;&gt;rect_merge_messages&lt;/span&gt;&lt;span style=&quot;color: #d4d4d4&quot;&gt;&amp;nbsp;=&amp;nbsp;&lt;/span&gt;&lt;span style=&quot;color: #4ec9b0&quot;&gt;std&lt;/span&gt;&lt;span style=&quot;color: #d4d4d4&quot;&gt;::&lt;/span&gt;&lt;span style=&quot;color: #dcdcaa&quot;&gt;dynamic_pointer_cast&lt;/span&gt;&lt;span style=&quot;color: #d4d4d4&quot;&gt;&amp;lt;&lt;/span&gt;&lt;span style=&quot;color: #4ec9b0&quot;&gt;pureeye&lt;/span&gt;&lt;span style=&quot;color: #d4d4d4&quot;&gt;::&lt;/span&gt;&lt;span style=&quot;color: #4ec9b0&quot;&gt;vision&lt;/span&gt;&lt;span style=&quot;color: #d4d4d4&quot;&gt;::&lt;/span&gt;&lt;span style=&quot;color: #4ec9b0&quot;&gt;MessageListMessage&lt;/span&gt;&lt;span style=&quot;color: #d4d4d4&quot;&gt;&amp;gt;(&lt;/span&gt;&lt;span style=&quot;color: #9cdcfe&quot;&gt;messages&lt;/span&gt;&lt;span style=&quot;color: #dcdcaa&quot;&gt;[&lt;/span&gt;&lt;span style=&quot;color: #b5cea8&quot;&gt;11&lt;/span&gt;&lt;span style=&quot;color: #dcdcaa&quot;&gt;]&lt;/span&gt;&lt;span style=&quot;color: #d4d4d4&quot;&gt;);&lt;/span&gt;&lt;/div&gt;&lt;/div&gt;" style="text;whiteSpace=wrap;html=1;fontSize=14;" parent="1" vertex="1">
          <mxGeometry x="17" y="1786" width="550" height="590" as="geometry" />
        </mxCell>
        <mxCell id="NipPHCl-mKM_xc_7-Nwc-194" value="&lt;div style=&quot;color: rgb(212, 212, 212); background-color: rgb(30, 30, 30); font-family: &amp;quot;consolas&amp;quot;, &amp;quot;courier new&amp;quot;, monospace; font-weight: normal; font-size: 16px; line-height: 22px;&quot;&gt;&lt;div&gt;&lt;span style=&quot;color: #9cdcfe&quot;&gt;run_task_&lt;/span&gt;&lt;span style=&quot;color: #d4d4d4&quot;&gt;&amp;nbsp;=&amp;nbsp;&lt;/span&gt;&lt;span style=&quot;color: #9cdcfe&quot;&gt;workflow_&lt;/span&gt;&lt;span style=&quot;color: #d4d4d4&quot;&gt;-&amp;gt;&lt;/span&gt;&lt;span style=&quot;color: #dcdcaa&quot;&gt;Run&lt;/span&gt;&lt;span style=&quot;color: #d4d4d4&quot;&gt;({&amp;nbsp;&lt;/span&gt;&lt;span style=&quot;color: #4ec9b0&quot;&gt;std&lt;/span&gt;&lt;span style=&quot;color: #d4d4d4&quot;&gt;::&lt;/span&gt;&lt;span style=&quot;color: #dcdcaa&quot;&gt;make_pair&lt;/span&gt;&lt;span style=&quot;color: #d4d4d4&quot;&gt;(snapshot_result_module_,&amp;nbsp;&lt;/span&gt;&lt;span style=&quot;color: #b5cea8&quot;&gt;0&lt;/span&gt;&lt;span style=&quot;color: #d4d4d4&quot;&gt;)&amp;nbsp;},&amp;nbsp;&lt;/span&gt;&lt;span style=&quot;color: #9cdcfe&quot;&gt;output_result_&lt;/span&gt;&lt;span style=&quot;color: #d4d4d4&quot;&gt;.&lt;/span&gt;&lt;span style=&quot;color: #dcdcaa&quot;&gt;get&lt;/span&gt;&lt;span style=&quot;color: #d4d4d4&quot;&gt;());&lt;/span&gt;&lt;/div&gt;&lt;/div&gt;" style="text;whiteSpace=wrap;html=1;fontSize=14;" parent="1" vertex="1">
          <mxGeometry x="16" y="1280" width="550" height="40" as="geometry" />
        </mxCell>
        <mxCell id="NipPHCl-mKM_xc_7-Nwc-195" value="非机动车" style="text;html=1;strokeColor=none;fillColor=none;align=left;verticalAlign=middle;whiteSpace=wrap;rounded=0;fontSize=19;" parent="1" vertex="1">
          <mxGeometry x="1690" y="600" width="90" height="70" as="geometry" />
        </mxCell>
        <mxCell id="NipPHCl-mKM_xc_7-Nwc-196" value="机动车" style="text;html=1;strokeColor=none;fillColor=none;align=left;verticalAlign=middle;whiteSpace=wrap;rounded=0;fontSize=19;" parent="1" vertex="1">
          <mxGeometry x="1670" y="500" width="90" height="70" as="geometry" />
        </mxCell>
        <mxCell id="NipPHCl-mKM_xc_7-Nwc-197" value="" style="edgeStyle=orthogonalEdgeStyle;rounded=0;orthogonalLoop=1;jettySize=auto;html=1;entryX=0;entryY=0.5;entryDx=0;entryDy=0;fontSize=14;endArrow=none;" parent="1" source="NipPHCl-mKM_xc_7-Nwc-159" target="NipPHCl-mKM_xc_7-Nwc-196" edge="1">
          <mxGeometry relative="1" as="geometry">
            <mxPoint x="1385" y="745" as="sourcePoint" />
            <mxPoint x="1780" y="550" as="targetPoint" />
          </mxGeometry>
        </mxCell>
        <mxCell id="NipPHCl-mKM_xc_7-Nwc-198" value="人脸+人体" style="text;html=1;strokeColor=none;fillColor=none;align=left;verticalAlign=middle;whiteSpace=wrap;rounded=0;fontSize=19;" parent="1" vertex="1">
          <mxGeometry x="1670" y="440" width="110" height="70" as="geometry" />
        </mxCell>
        <mxCell id="NipPHCl-mKM_xc_7-Nwc-202" value="&lt;div style=&quot;color: rgb(212 , 212 , 212) ; background-color: rgb(30 , 30 , 30) ; font-family: &amp;#34;consolas&amp;#34; , &amp;#34;courier new&amp;#34; , monospace ; font-weight: normal ; font-size: 16px ; line-height: 22px&quot;&gt;&lt;div&gt;&lt;span style=&quot;color: #9cdcfe&quot;&gt;&quot;detection_param&quot;&lt;/span&gt;&lt;span style=&quot;color: #d4d4d4&quot;&gt;:{&lt;/span&gt;&lt;/div&gt;&lt;div&gt;&lt;span style=&quot;color: #d4d4d4&quot;&gt;&amp;nbsp;&amp;nbsp;&amp;nbsp;&amp;nbsp;&amp;nbsp;&amp;nbsp;&amp;nbsp;&amp;nbsp;&lt;/span&gt;&lt;span style=&quot;color: #9cdcfe&quot;&gt;&quot;cls_type&quot;&lt;/span&gt;&lt;span style=&quot;color: #d4d4d4&quot;&gt;:&amp;nbsp;&lt;/span&gt;&lt;span style=&quot;color: #ce9178&quot;&gt;&quot;face&quot;&lt;/span&gt;&lt;span style=&quot;color: #d4d4d4&quot;&gt;,&lt;/span&gt;&lt;/div&gt;&lt;div&gt;&lt;span style=&quot;color: #d4d4d4&quot;&gt;&amp;nbsp;&amp;nbsp;&amp;nbsp;&amp;nbsp;&amp;nbsp;&amp;nbsp;&amp;nbsp;&amp;nbsp;&lt;/span&gt;&lt;span style=&quot;color: #9cdcfe&quot;&gt;&quot;min_score&quot;&lt;/span&gt;&lt;span style=&quot;color: #d4d4d4&quot;&gt;:&amp;nbsp;&lt;/span&gt;&lt;span style=&quot;color: #b5cea8&quot;&gt;0.5&lt;/span&gt;&lt;span style=&quot;color: #d4d4d4&quot;&gt;,&amp;nbsp;&amp;nbsp;&amp;nbsp;&amp;nbsp;&amp;nbsp;&amp;nbsp;&amp;nbsp;&amp;nbsp;&amp;nbsp;&amp;nbsp; //框的最小得分，小于舍弃&lt;br&gt;&lt;/span&gt;&lt;/div&gt;&lt;div&gt;&lt;span style=&quot;color: #d4d4d4&quot;&gt;&amp;nbsp;&amp;nbsp;&amp;nbsp;&amp;nbsp;&amp;nbsp;&amp;nbsp;&amp;nbsp;&amp;nbsp;&lt;/span&gt;&lt;span style=&quot;color: #9cdcfe&quot;&gt;&quot;ignore_overlap_thres&quot;&lt;/span&gt;&lt;span style=&quot;color: #d4d4d4&quot;&gt;:&amp;nbsp;&lt;/span&gt;&lt;span style=&quot;color: #b5cea8&quot;&gt;0.9 //所有框交叉面积超过90%选第一个&amp;nbsp; &amp;nbsp; &amp;nbsp; &amp;nbsp; &amp;nbsp; &amp;nbsp; &amp;nbsp; &amp;nbsp; &amp;nbsp; &lt;br&gt;&lt;/span&gt;&lt;/div&gt;&lt;div&gt;&lt;span style=&quot;color: #d4d4d4&quot;&gt;&amp;nbsp;&amp;nbsp;&amp;nbsp;&amp;nbsp;}&lt;/span&gt;&lt;/div&gt;&lt;/div&gt;" style="text;whiteSpace=wrap;html=1;fontSize=14;" parent="1" vertex="1">
          <mxGeometry x="459" y="-470" width="585" height="130" as="geometry" />
        </mxCell>
        <mxCell id="NipPHCl-mKM_xc_7-Nwc-101" value="多目标跟踪track_id" style="text;html=1;strokeColor=none;fillColor=none;align=left;verticalAlign=middle;whiteSpace=wrap;rounded=0;fontSize=19;" parent="1" vertex="1">
          <mxGeometry x="600" y="-20" width="180" height="70" as="geometry" />
        </mxCell>
        <mxCell id="NipPHCl-mKM_xc_7-Nwc-203" value="&lt;br&gt;&lt;br&gt;&lt;div style=&quot;color: rgb(212 , 212 , 212) ; background-color: rgb(30 , 30 , 30) ; font-family: &amp;#34;consolas&amp;#34; , &amp;#34;courier new&amp;#34; , monospace ; font-weight: normal ; font-size: 16px ; line-height: 22px&quot;&gt;&lt;div&gt;&lt;span style=&quot;color: #d4d4d4&quot;&gt;&amp;nbsp;&amp;nbsp;&amp;nbsp;&lt;/span&gt;&lt;span style=&quot;color: #9cdcfe&quot;&gt;&quot;det_filter_thresh&quot;&lt;/span&gt;&lt;span style=&quot;color: #d4d4d4&quot;&gt;:&amp;nbsp;&lt;/span&gt;&lt;span style=&quot;color: #b5cea8&quot;&gt;0.5&lt;/span&gt;&lt;span style=&quot;color: #d4d4d4&quot;&gt; //框得分阈值&lt;br&gt;&lt;/span&gt;&lt;/div&gt;&lt;/div&gt;&lt;br&gt;" style="text;whiteSpace=wrap;html=1;fontSize=14;" parent="1" vertex="1">
          <mxGeometry x="264" y="-177" width="180" height="40" as="geometry" />
        </mxCell>
        <mxCell id="NipPHCl-mKM_xc_7-Nwc-205" value="&lt;div style=&quot;color: rgb(212 , 212 , 212) ; background-color: rgb(30 , 30 , 30) ; font-family: &amp;#34;consolas&amp;#34; , &amp;#34;courier new&amp;#34; , monospace ; font-weight: normal ; font-size: 16px ; line-height: 22px&quot;&gt;&lt;div&gt;&lt;span style=&quot;color: #9cdcfe&quot;&gt;&quot;track_param&quot;&lt;/span&gt;&lt;span style=&quot;color: #d4d4d4&quot;&gt;:&amp;nbsp;{&lt;/span&gt;&lt;/div&gt;&lt;div&gt;&lt;span style=&quot;color: #d4d4d4&quot;&gt;&amp;nbsp;&amp;nbsp;&amp;nbsp;&amp;nbsp;&amp;nbsp;&amp;nbsp;&amp;nbsp;&amp;nbsp;&lt;/span&gt;&lt;span style=&quot;color: #9cdcfe&quot;&gt;&quot;use_kalman_filter&quot;&lt;/span&gt;&lt;span style=&quot;color: #d4d4d4&quot;&gt;:&amp;nbsp;&lt;/span&gt;&lt;span style=&quot;color: #b5cea8&quot;&gt;0&lt;/span&gt;&lt;span style=&quot;color: #d4d4d4&quot;&gt;,&lt;/span&gt;&lt;/div&gt;&lt;div&gt;&lt;span style=&quot;color: #d4d4d4&quot;&gt;&amp;nbsp;&amp;nbsp;&amp;nbsp;&amp;nbsp;&amp;nbsp;&amp;nbsp;&amp;nbsp;&amp;nbsp;&lt;/span&gt;&lt;span style=&quot;color: #9cdcfe&quot;&gt;&quot;missing_time_thres&quot;&lt;/span&gt;&lt;span style=&quot;color: #d4d4d4&quot;&gt;:&amp;nbsp;&lt;/span&gt;&lt;span style=&quot;color: #b5cea8&quot;&gt;2&lt;/span&gt;&lt;span style=&quot;color: #d4d4d4&quot;&gt;,&lt;/span&gt;&lt;/div&gt;&lt;div&gt;&lt;span style=&quot;color: #d4d4d4&quot;&gt;&amp;nbsp;&amp;nbsp;&amp;nbsp;&amp;nbsp;&amp;nbsp;&amp;nbsp;&amp;nbsp;&amp;nbsp;&lt;/span&gt;&lt;span style=&quot;color: #9cdcfe&quot;&gt;&quot;remove_invisible_track_ms&quot;&lt;/span&gt;&lt;span style=&quot;color: #d4d4d4&quot;&gt;:&amp;nbsp;&lt;/span&gt;&lt;span style=&quot;color: #b5cea8&quot;&gt;2000&lt;/span&gt;&lt;span style=&quot;color: #d4d4d4&quot;&gt;,&lt;/span&gt;&lt;/div&gt;&lt;div&gt;&lt;span style=&quot;color: #d4d4d4&quot;&gt;&amp;nbsp;&amp;nbsp;&amp;nbsp;&amp;nbsp;&amp;nbsp;&amp;nbsp;&amp;nbsp;&amp;nbsp;&lt;/span&gt;&lt;span style=&quot;color: #9cdcfe&quot;&gt;&quot;remove_obsolete_track&quot;&lt;/span&gt;&lt;span style=&quot;color: #d4d4d4&quot;&gt;:&amp;nbsp;&lt;/span&gt;&lt;span style=&quot;color: #b5cea8&quot;&gt;0&lt;/span&gt;&lt;span style=&quot;color: #d4d4d4&quot;&gt;,&lt;/span&gt;&lt;/div&gt;&lt;div&gt;&lt;span style=&quot;color: #d4d4d4&quot;&gt;&amp;nbsp;&amp;nbsp;&amp;nbsp;&amp;nbsp;&amp;nbsp;&amp;nbsp;&amp;nbsp;&amp;nbsp;&lt;/span&gt;&lt;span style=&quot;color: #9cdcfe&quot;&gt;&quot;iou_thres&quot;&lt;/span&gt;&lt;span style=&quot;color: #d4d4d4&quot;&gt;:&amp;nbsp;&lt;/span&gt;&lt;span style=&quot;color: #b5cea8&quot;&gt;0.1&lt;/span&gt;&lt;span style=&quot;color: #d4d4d4&quot;&gt;,&amp;nbsp;&amp;nbsp;&amp;nbsp;&amp;nbsp;&amp;nbsp;&amp;nbsp;&amp;nbsp;&amp;nbsp;&amp;nbsp;&amp;nbsp;&amp;nbsp;&amp;nbsp;&amp;nbsp;&amp;nbsp;&amp;nbsp;&amp;nbsp;&amp;nbsp;&amp;nbsp;&amp;nbsp;&amp;nbsp;&amp;nbsp;&amp;nbsp;&amp;nbsp;&amp;nbsp;&amp;nbsp;&amp;nbsp;&amp;nbsp;&amp;nbsp;&amp;nbsp;&amp;nbsp;&amp;nbsp;&amp;nbsp;&amp;nbsp;&amp;nbsp;&amp;nbsp;&amp;nbsp;&amp;nbsp;&amp;nbsp;&amp;nbsp; &lt;br&gt;&lt;/span&gt;&lt;/div&gt;&lt;div&gt;&lt;span style=&quot;color: #d4d4d4&quot;&gt;&amp;nbsp;&amp;nbsp;&amp;nbsp;&amp;nbsp;&amp;nbsp;&amp;nbsp;&amp;nbsp;&amp;nbsp;&lt;/span&gt;&lt;span style=&quot;color: #9cdcfe&quot;&gt;&quot;use_location_gain&quot;&lt;/span&gt;&lt;span style=&quot;color: #d4d4d4&quot;&gt;:&amp;nbsp;&lt;/span&gt;&lt;span style=&quot;color: #b5cea8&quot;&gt;1&lt;/span&gt;&lt;span style=&quot;color: #d4d4d4&quot;&gt;,&amp;nbsp;&amp;nbsp; 、、&lt;br&gt;&lt;/span&gt;&lt;/div&gt;&lt;div&gt;&lt;span style=&quot;color: #d4d4d4&quot;&gt;&amp;nbsp;&amp;nbsp;&amp;nbsp;&amp;nbsp;&amp;nbsp;&amp;nbsp;&amp;nbsp;&amp;nbsp;&lt;/span&gt;&lt;span style=&quot;color: #9cdcfe&quot;&gt;&quot;max_trajectory_number&quot;&lt;/span&gt;&lt;span style=&quot;color: #d4d4d4&quot;&gt;:&amp;nbsp;&lt;/span&gt;&lt;span style=&quot;color: #b5cea8&quot;&gt;3&lt;/span&gt;&lt;/div&gt;&lt;div&gt;&lt;span style=&quot;color: #d4d4d4&quot;&gt;&amp;nbsp;&amp;nbsp;&amp;nbsp;&amp;nbsp;},&lt;/span&gt;&lt;/div&gt;&lt;/div&gt;" style="text;whiteSpace=wrap;html=1;fontSize=14;" parent="1" vertex="1">
          <mxGeometry x="462" y="-689" width="578" height="210" as="geometry" />
        </mxCell>
        <mxCell id="NipPHCl-mKM_xc_7-Nwc-207" value="1.BuildTargetList()&amp;nbsp; 计算每一个框的 重叠面积最大的值，距离最小的框的值" style="text;html=1;strokeColor=none;fillColor=none;align=center;verticalAlign=middle;whiteSpace=wrap;rounded=0;fontSize=20;" parent="1" vertex="1">
          <mxGeometry x="345" y="-310" width="780" height="20" as="geometry" />
        </mxCell>
        <mxCell id="NipPHCl-mKM_xc_7-Nwc-208" value="2. Track()&amp;nbsp; " style="text;html=1;strokeColor=none;fillColor=none;align=left;verticalAlign=middle;whiteSpace=wrap;rounded=0;fontSize=20;" parent="1" vertex="1">
          <mxGeometry x="404" y="-280" width="780" height="20" as="geometry" />
        </mxCell>
        <mxCell id="NipPHCl-mKM_xc_7-Nwc-215" value="&lt;div style=&quot;color: rgb(212, 212, 212); background-color: rgb(30, 30, 30); font-family: &amp;quot;consolas&amp;quot;, &amp;quot;courier new&amp;quot;, monospace; font-weight: normal; font-size: 18px; line-height: 22px;&quot;&gt;&lt;div style=&quot;font-size: 18px;&quot;&gt;&lt;span style=&quot;color: rgb(212, 212, 212); font-size: 18px;&quot;&gt;&amp;nbsp;&amp;nbsp;&lt;/span&gt;&lt;span style=&quot;color: rgb(156, 220, 254); font-size: 18px;&quot;&gt;predictor_&lt;/span&gt;&lt;span style=&quot;color: rgb(212, 212, 212); font-size: 18px;&quot;&gt;&amp;nbsp;=&amp;nbsp;&lt;/span&gt;&lt;span style=&quot;color: rgb(197, 134, 192); font-size: 18px;&quot;&gt;new&lt;/span&gt;&lt;span style=&quot;color: rgb(212, 212, 212); font-size: 18px;&quot;&gt;&amp;nbsp;&lt;/span&gt;&lt;span style=&quot;color: rgb(78, 201, 176); font-size: 18px;&quot;&gt;pureeye&lt;/span&gt;&lt;span style=&quot;color: rgb(212, 212, 212); font-size: 18px;&quot;&gt;::&lt;/span&gt;&lt;span style=&quot;color: rgb(78, 201, 176); font-size: 18px;&quot;&gt;vision&lt;/span&gt;&lt;span style=&quot;color: rgb(212, 212, 212); font-size: 18px;&quot;&gt;::&lt;/span&gt;&lt;span style=&quot;color: rgb(78, 201, 176); font-size: 18px;&quot;&gt;DCVPredictModule&lt;/span&gt;&lt;span style=&quot;color: rgb(212, 212, 212); font-size: 18px;&quot;&gt;(&lt;/span&gt;&lt;span style=&quot;color: rgb(206, 145, 120); font-size: 18px;&quot;&gt;&quot;&quot;&lt;/span&gt;&lt;span style=&quot;color: rgb(212, 212, 212); font-size: 18px;&quot;&gt;,&amp;nbsp;&lt;/span&gt;&lt;span style=&quot;color: rgb(156, 220, 254); font-size: 18px;&quot;&gt;config_&lt;/span&gt;&lt;span style=&quot;color: rgb(212, 212, 212); font-size: 18px;&quot;&gt;.&lt;/span&gt;&lt;span style=&quot;color: rgb(156, 220, 254); font-size: 18px;&quot;&gt;dev_id_&lt;/span&gt;&lt;span style=&quot;color: rgb(212, 212, 212); font-size: 18px;&quot;&gt;);&lt;/span&gt;&lt;/div&gt;&lt;div style=&quot;font-size: 18px;&quot;&gt;&lt;span style=&quot;color: rgb(212, 212, 212); font-size: 18px;&quot;&gt;&lt;/span&gt;&lt;/div&gt;&lt;/div&gt;" style="text;whiteSpace=wrap;html=1;fontSize=18;" parent="1" vertex="1">
          <mxGeometry x="-513" y="-680" width="697" height="50" as="geometry" />
        </mxCell>
        <mxCell id="NipPHCl-mKM_xc_7-Nwc-216" value="&lt;div style=&quot;color: rgb(212, 212, 212); background-color: rgb(30, 30, 30); font-family: &amp;quot;consolas&amp;quot;, &amp;quot;courier new&amp;quot;, monospace; font-weight: normal; font-size: 19px; line-height: 22px;&quot;&gt;&lt;div style=&quot;font-size: 19px;&quot;&gt;&lt;span style=&quot;color: rgb(212, 212, 212); font-size: 19px;&quot;&gt;&amp;nbsp;&amp;nbsp;&lt;/span&gt;&lt;span style=&quot;color: rgb(156, 220, 254); font-size: 19px;&quot;&gt;face_box_filter_&lt;/span&gt;&lt;span style=&quot;color: rgb(212, 212, 212); font-size: 19px;&quot;&gt;&amp;nbsp;=&amp;nbsp;&lt;/span&gt;&lt;span style=&quot;color: rgb(197, 134, 192); font-size: 19px;&quot;&gt;new&lt;/span&gt;&lt;span style=&quot;color: rgb(212, 212, 212); font-size: 19px;&quot;&gt;&amp;nbsp;&lt;/span&gt;&lt;span style=&quot;color: rgb(78, 201, 176); font-size: 19px;&quot;&gt;pureeye&lt;/span&gt;&lt;span style=&quot;color: rgb(212, 212, 212); font-size: 19px;&quot;&gt;::&lt;/span&gt;&lt;span style=&quot;color: rgb(78, 201, 176); font-size: 19px;&quot;&gt;vision&lt;/span&gt;&lt;span style=&quot;color: rgb(212, 212, 212); font-size: 19px;&quot;&gt;::&lt;/span&gt;&lt;span style=&quot;color: rgb(78, 201, 176); font-size: 19px;&quot;&gt;BBoxFilterModule&lt;/span&gt;&lt;span style=&quot;color: rgb(212, 212, 212); font-size: 19px;&quot;&gt;(&lt;/span&gt;&lt;/div&gt;&lt;div style=&quot;font-size: 19px;&quot;&gt;&lt;span style=&quot;color: rgb(212, 212, 212); font-size: 19px;&quot;&gt;&amp;nbsp;&amp;nbsp;&amp;nbsp;&amp;nbsp;&amp;nbsp;&amp;nbsp;&lt;/span&gt;&lt;span style=&quot;color: rgb(156, 220, 254); font-size: 19px;&quot;&gt;face_cls&lt;/span&gt;&lt;span style=&quot;color: rgb(212, 212, 212); font-size: 19px;&quot;&gt;,&amp;nbsp;&lt;/span&gt;&lt;span style=&quot;color: rgb(156, 220, 254); font-size: 19px;&quot;&gt;face_config&lt;/span&gt;&lt;span style=&quot;color: rgb(212, 212, 212); font-size: 19px;&quot;&gt;-&amp;gt;&lt;/span&gt;&lt;span style=&quot;color: rgb(220, 220, 170); font-size: 19px;&quot;&gt;GetFloatValue&lt;/span&gt;&lt;span style=&quot;color: rgb(212, 212, 212); font-size: 19px;&quot;&gt;(&lt;/span&gt;&lt;span style=&quot;color: rgb(206, 145, 120); font-size: 19px;&quot;&gt;&quot;det_filter_thresh&quot;&lt;/span&gt;&lt;span style=&quot;color: rgb(212, 212, 212); font-size: 19px;&quot;&gt;));&lt;/span&gt;&lt;/div&gt;&lt;/div&gt;" style="text;whiteSpace=wrap;html=1;fontSize=19;" parent="1" vertex="1">
          <mxGeometry x="-513" y="-638" width="727" height="54" as="geometry" />
        </mxCell>
        <mxCell id="NipPHCl-mKM_xc_7-Nwc-217" value="&lt;div style=&quot;color: rgb(212 , 212 , 212) ; background-color: rgb(30 , 30 , 30) ; font-family: &amp;#34;consolas&amp;#34; , &amp;#34;courier new&amp;#34; , monospace ; font-weight: normal ; font-size: 20px ; line-height: 22px&quot;&gt;&lt;div style=&quot;font-size: 20px&quot;&gt;&lt;span style=&quot;color: rgb(212 , 212 , 212) ; font-size: 20px&quot;&gt;&amp;nbsp;&amp;nbsp;&lt;/span&gt;&lt;span style=&quot;color: rgb(156 , 220 , 254) ; font-size: 20px&quot;&gt;workflow_&lt;/span&gt;&lt;span style=&quot;color: rgb(212 , 212 , 212) ; font-size: 20px&quot;&gt;-&amp;gt;&lt;/span&gt;&lt;span style=&quot;color: rgb(220 , 220 , 170) ; font-size: 20px&quot;&gt;From&lt;/span&gt;&lt;span style=&quot;color: rgb(212 , 212 , 212) ; font-size: 20px&quot;&gt;(&lt;/span&gt;&lt;span style=&quot;color: rgb(156 , 220 , 254) ; font-size: 20px&quot;&gt;predictor_&lt;/span&gt;&lt;span style=&quot;color: rgb(212 , 212 , 212) ; font-size: 20px&quot;&gt;,&amp;nbsp;&lt;/span&gt;&lt;span style=&quot;color: rgb(181 , 206 , 168) ; font-size: 20px&quot;&gt;0&lt;/span&gt;&lt;span style=&quot;color: rgb(212 , 212 , 212) ; font-size: 20px&quot;&gt;)-&amp;gt;&lt;/span&gt;&lt;span style=&quot;color: rgb(220 , 220 , 170) ; font-size: 20px&quot;&gt;To&lt;/span&gt;&lt;span style=&quot;color: rgb(212 , 212 , 212) ; font-size: 20px&quot;&gt;(&lt;/span&gt;&lt;span style=&quot;color: rgb(156 , 220 , 254) ; font-size: 20px&quot;&gt;face_box_filter_&lt;/span&gt;&lt;span style=&quot;color: rgb(212 , 212 , 212) ; font-size: 20px&quot;&gt;, &lt;/span&gt;&lt;span style=&quot;color: rgb(181 , 206 , 168) ; font-size: 20px&quot;&gt;1&lt;/span&gt;&lt;span style=&quot;color: rgb(212 , 212 , 212) ; font-size: 20px&quot;&gt;,&amp;nbsp;&lt;/span&gt;&lt;span style=&quot;color: rgb(181 , 206 , 168) ; font-size: 20px&quot;&gt;0&lt;/span&gt;&lt;span style=&quot;color: rgb(212 , 212 , 212) ; font-size: 20px&quot;&gt;);&lt;/span&gt;&lt;/div&gt;&lt;div style=&quot;font-size: 20px&quot;&gt;&lt;span style=&quot;color: rgb(212 , 212 , 212) ; font-size: 20px&quot;&gt;&lt;/span&gt;&lt;/div&gt;&lt;/div&gt;" style="text;whiteSpace=wrap;html=1;fontSize=20;" parent="1" vertex="1">
          <mxGeometry x="-508" y="-570" width="687" height="40" as="geometry" />
        </mxCell>
        <mxCell id="NipPHCl-mKM_xc_7-Nwc-218" value="串联module输入输出" style="text;html=1;strokeColor=#2D7600;fillColor=#60a917;align=center;verticalAlign=middle;whiteSpace=wrap;rounded=0;fontSize=24;fontColor=#ffffff;" parent="1" vertex="1">
          <mxGeometry x="-640" y="-800" width="250" height="49" as="geometry" />
        </mxCell>
        <mxCell id="NipPHCl-mKM_xc_7-Nwc-221" value="DcvPredictModule 的&lt;span style=&quot;background-color: rgb(255 , 0 , 128) ; font-size: 27px&quot;&gt;&lt;b style=&quot;font-size: 27px&quot;&gt;FORWARD_DECLARE 0&lt;/b&gt;&lt;/span&gt; 的输出作为 BBoxFilterModule的&lt;span style=&quot;background-color: rgb(255 , 0 , 128) ; font-size: 27px&quot;&gt;FORWARD_DECLARE 0&lt;/span&gt;&amp;nbsp; 的&lt;span style=&quot;background-color: rgb(204 , 0 , 102) ; font-size: 27px&quot;&gt;Inputs[1]&lt;/span&gt; 的值" style="text;html=1;strokeColor=#B09500;fillColor=#e3c800;align=left;verticalAlign=middle;whiteSpace=wrap;rounded=0;fontSize=27;fontColor=#000000;" parent="1" vertex="1">
          <mxGeometry x="-605" y="-500" width="850" height="120" as="geometry" />
        </mxCell>
        <mxCell id="NipPHCl-mKM_xc_7-Nwc-234" style="edgeStyle=orthogonalEdgeStyle;rounded=0;orthogonalLoop=1;jettySize=auto;html=1;entryX=0.75;entryY=0;entryDx=0;entryDy=0;fontSize=4;strokeWidth=1;" parent="1" source="NipPHCl-mKM_xc_7-Nwc-222" target="NipPHCl-mKM_xc_7-Nwc-117" edge="1">
          <mxGeometry relative="1" as="geometry">
            <Array as="points">
              <mxPoint x="1424" y="-110" />
              <mxPoint x="1290" y="-110" />
            </Array>
          </mxGeometry>
        </mxCell>
        <mxCell id="NipPHCl-mKM_xc_7-Nwc-222" value="&lt;div&gt;InputMoudel&lt;/div&gt;&lt;div&gt;(&quot;img_info_input&quot;)&lt;/div&gt;&lt;div&gt;图片大小信息&lt;/div&gt;" style="rounded=1;whiteSpace=wrap;html=1;fillColor=#dae8fc;strokeColor=#6c8ebf;" parent="1" vertex="1">
          <mxGeometry x="1330" y="-230" width="160" height="40" as="geometry" />
        </mxCell>
        <mxCell id="NipPHCl-mKM_xc_7-Nwc-233" style="edgeStyle=orthogonalEdgeStyle;rounded=0;orthogonalLoop=1;jettySize=auto;html=1;fontSize=4;strokeWidth=1;" parent="1" source="NipPHCl-mKM_xc_7-Nwc-223" target="NipPHCl-mKM_xc_7-Nwc-117" edge="1">
          <mxGeometry relative="1" as="geometry" />
        </mxCell>
        <mxCell id="NipPHCl-mKM_xc_7-Nwc-223" value="&lt;div&gt;InputMoudel&lt;/div&gt;&lt;div&gt;(&quot;time_stamp_input&quot;)&lt;/div&gt;&lt;div&gt;图片的时间戳&lt;br&gt;&lt;/div&gt;" style="rounded=1;whiteSpace=wrap;html=1;fillColor=#dae8fc;strokeColor=#6c8ebf;" parent="1" vertex="1">
          <mxGeometry x="1170" y="-230" width="160" height="40" as="geometry" />
        </mxCell>
        <mxCell id="NipPHCl-mKM_xc_7-Nwc-232" style="edgeStyle=orthogonalEdgeStyle;rounded=0;orthogonalLoop=1;jettySize=auto;html=1;entryX=0.25;entryY=0;entryDx=0;entryDy=0;fontSize=4;strokeWidth=1;" parent="1" source="NipPHCl-mKM_xc_7-Nwc-224" target="NipPHCl-mKM_xc_7-Nwc-117" edge="1">
          <mxGeometry relative="1" as="geometry" />
        </mxCell>
        <mxCell id="NipPHCl-mKM_xc_7-Nwc-224" value="&lt;div&gt;InputMoudel&lt;/div&gt;&lt;div&gt;(&quot;image_input&quot;)&lt;/div&gt;" style="rounded=1;whiteSpace=wrap;html=1;fillColor=#cce5ff;strokeColor=#36393d;" parent="1" vertex="1">
          <mxGeometry x="1010" y="-230" width="160" height="40" as="geometry" />
        </mxCell>
        <mxCell id="NipPHCl-mKM_xc_7-Nwc-235" value="track_id 人体框列表" style="text;html=1;strokeColor=none;fillColor=none;align=center;verticalAlign=middle;whiteSpace=wrap;rounded=0;fontSize=20;" parent="1" vertex="1">
          <mxGeometry x="790" y="240" width="100" height="20" as="geometry" />
        </mxCell>
      </root>
    </mxGraphModel>
  </diagram>
</mxfile>
